<?xml version="1.0" standalone="no"?>
<!DOCTYPE svg PUBLIC "-//W3C//DTD SVG 20010904//EN"
 "http://www.w3.org/TR/2001/REC-SVG-20010904/DTD/svg10.dtd">
<svg version="1.0" xmlns="http://www.w3.org/2000/svg"
 width="700.000000pt" height="700.000000pt" viewBox="0 0 700.000000 700.000000"
 preserveAspectRatio="xMidYMid meet">
<metadata>
Created by potrace 1.14, written by Peter Selinger 2001-2017
</metadata>
<g transform="translate(0.000000,700.000000) scale(0.100000,-0.100000)"
fill="#000000" stroke="none">
<path d="M2280 6490 c-8 -8 -52 -62 -97 -120 -260 -334 -347 -446 -353 -450
-4 -3 -11 -12 -16 -21 -8 -15 -51 -70 -84 -109 -8 -9 -26 -32 -40 -50 -21 -27
-139 -179 -168 -215 -4 -5 -77 -98 -160 -205 -84 -107 -159 -202 -165 -210 -7
-8 -118 -150 -247 -315 -129 -165 -237 -302 -240 -305 -3 -3 -25 -32 -50 -65
-25 -33 -47 -62 -51 -65 -3 -3 -70 -88 -149 -190 -80 -102 -155 -196 -167
-210 -13 -14 -23 -28 -23 -32 0 -3 -6 -13 -13 -20 -7 -7 -52 -64 -101 -125
l-88 -113 24 -32 c12 -18 28 -40 35 -48 11 -13 76 -97 172 -219 14 -19 55 -71
91 -116 36 -45 77 -97 91 -116 15 -19 141 -180 280 -358 140 -178 291 -371
337 -430 45 -58 93 -119 106 -136 14 -16 44 -55 67 -85 24 -30 48 -61 55 -70
17 -21 361 -460 676 -863 9 -12 38 -49 65 -83 26 -33 62 -78 78 -99 17 -21 52
-66 78 -99 27 -34 52 -66 55 -72 5 -9 243 -14 892 -19 487 -4 946 -8 1020 -9
74 -1 145 2 158 6 21 7 107 61 342 213 52 34 154 99 225 144 72 45 207 132
300 192 94 60 238 152 320 205 83 52 233 149 335 214 102 65 246 157 320 205
74 47 189 121 255 163 l120 77 0 1425 0 1424 -245 158 c-135 86 -270 172 -300
191 -49 30 -1223 782 -1260 807 -13 9 -142 90 -182 115 -9 6 -64 41 -123 79
l-106 68 -1027 2 c-902 1 -1029 -1 -1042 -14z"/>
</g>
</svg>
