<?xml version="1.0" encoding="utf-8"?>
<!-- Generator: Adobe Illustrator 27.0.0, SVG Export Plug-In . SVG Version: 6.00 Build 0)  -->
<svg version="1.1" id="Layer_1" xmlns="http://www.w3.org/2000/svg" xmlns:xlink="http://www.w3.org/1999/xlink" x="0px" y="0px"
	 viewBox="0 0 1000 1000" style="enable-background:new 0 0 1000 1000;" xml:space="preserve">
<style type="text/css">
	.st0{fill:#101010;}
	.st1{fill:#FFFFFF;}
</style>
<polygon class="st0" points="326.85,71.04 9.49,476.06 326.83,881.09 621.07,883.45 938.41,680.35 938.47,274.11 621.09,71.02 "/>
<g>
	<g>
		<polygon class="st1" points="880.03,654.8 880,654.81 880,654.8 		"/>
		<polygon class="st1" points="880.01,299.68 602.59,477.24 880,654.8 880,654.81 602.58,832.35 511.75,832.35 789.19,654.81 
			511.77,477.24 789.2,299.68 543.51,142.46 436.19,830.28 345.35,830.28 67.92,476.21 67.93,476.21 345.37,122.14 436.19,122.14 
			158.74,476.21 365.75,740.37 505.93,122.4 512.12,122.35 546.69,122.13 602.59,122.13 880.01,299.67 		"/>
		<polygon class="st1" points="546.69,122.13 512.12,122.35 511.75,122.13 		"/>
		<polygon class="st1" points="880.04,299.67 880.03,299.68 880.01,299.68 880.01,299.67 		"/>
	</g>
</g>
</svg>
