<?xml version="1.0" encoding="UTF-8"?>
<svg id="Layer_1" data-name="Layer 1" xmlns="http://www.w3.org/2000/svg" xmlns:xlink="http://www.w3.org/1999/xlink" viewBox="0 0 2141.68 540">
  <defs>
    <style>
      .cls-1 {
        fill: url(#linear-gradient);
      }

      .cls-2 {
        fill: #5aa395;
      }

      .cls-3 {
        fill: url(#linear-gradient-8);
      }

      .cls-4 {
        fill: url(#linear-gradient-9);
      }

      .cls-5 {
        fill: url(#linear-gradient-3);
      }

      .cls-6 {
        fill: url(#linear-gradient-4);
      }

      .cls-7 {
        fill: url(#linear-gradient-2);
      }

      .cls-8 {
        fill: url(#linear-gradient-6);
      }

      .cls-9 {
        fill: url(#linear-gradient-7);
      }

      .cls-10 {
        fill: url(#linear-gradient-5);
      }

      .cls-11 {
        opacity: .35;
      }

      .cls-12 {
        fill: url(#linear-gradient-41);
      }

      .cls-13 {
        fill: url(#linear-gradient-40);
      }

      .cls-14 {
        fill: url(#linear-gradient-43);
      }

      .cls-15 {
        fill: url(#linear-gradient-42);
      }

      .cls-16 {
        fill: url(#linear-gradient-44);
      }

      .cls-17 {
        fill: url(#linear-gradient-14);
      }

      .cls-18 {
        fill: url(#linear-gradient-18);
      }

      .cls-19 {
        fill: url(#linear-gradient-22);
      }

      .cls-20 {
        fill: url(#linear-gradient-20);
      }

      .cls-21 {
        fill: url(#linear-gradient-21);
      }

      .cls-22 {
        fill: url(#linear-gradient-23);
      }

      .cls-23 {
        fill: url(#linear-gradient-15);
      }

      .cls-24 {
        fill: url(#linear-gradient-19);
      }

      .cls-25 {
        fill: url(#linear-gradient-16);
      }

      .cls-26 {
        fill: url(#linear-gradient-17);
      }

      .cls-27 {
        fill: url(#linear-gradient-13);
      }

      .cls-28 {
        fill: url(#linear-gradient-12);
      }

      .cls-29 {
        fill: url(#linear-gradient-10);
      }

      .cls-30 {
        fill: url(#linear-gradient-11);
      }

      .cls-31 {
        fill: url(#linear-gradient-27);
      }

      .cls-32 {
        fill: url(#linear-gradient-24);
      }

      .cls-33 {
        fill: url(#linear-gradient-26);
      }

      .cls-34 {
        fill: url(#linear-gradient-38);
      }

      .cls-35 {
        fill: url(#linear-gradient-35);
      }

      .cls-36 {
        fill: url(#linear-gradient-37);
      }

      .cls-37 {
        fill: url(#linear-gradient-34);
      }

      .cls-38 {
        fill: url(#linear-gradient-39);
      }

      .cls-39 {
        fill: url(#linear-gradient-36);
      }

      .cls-40 {
        fill: url(#linear-gradient-25);
      }

      .cls-41 {
        fill: url(#linear-gradient-28);
      }

      .cls-42 {
        fill: url(#linear-gradient-29);
      }

      .cls-43 {
        fill: url(#linear-gradient-33);
      }

      .cls-44 {
        fill: url(#linear-gradient-30);
      }

      .cls-45 {
        fill: url(#linear-gradient-32);
      }

      .cls-46 {
        fill: url(#linear-gradient-31);
      }
    </style>
    <linearGradient id="linear-gradient" x1="-1203.16" y1="2005.05" x2="-829.16" y2="2005.05" gradientTransform="translate(-1942.66 -829.16) rotate(-90)" gradientUnits="userSpaceOnUse">
      <stop offset="0" stop-color="#6aa7b0"/>
      <stop offset="0" stop-color="#86cfc3"/>
    </linearGradient>
    <linearGradient id="linear-gradient-2" x1="123.68" y1="226" x2="242.68" y2="226" gradientUnits="userSpaceOnUse">
      <stop offset="0" stop-color="#6aa7b0"/>
      <stop offset="0" stop-color="#539488"/>
    </linearGradient>
    <linearGradient id="linear-gradient-3" x1="242.68" y1="226" x2="337.68" y2="226" gradientUnits="userSpaceOnUse">
      <stop offset="0" stop-color="#6aa7b0"/>
      <stop offset="0" stop-color="#71c5b6"/>
    </linearGradient>
    <linearGradient id="linear-gradient-4" x1="337.68" y1="299.5" x2="634.68" y2="299.5" gradientTransform="matrix(1, 0, 0, 1, 0, 0)" xlink:href="#linear-gradient"/>
    <linearGradient id="linear-gradient-5" x1="707.68" y1="309.5" x2="778.68" y2="309.5" xlink:href="#linear-gradient-3"/>
    <linearGradient id="linear-gradient-6" x1="778.68" y1="295.5" x2="988.68" y2="295.5" gradientTransform="matrix(1, 0, 0, 1, 0, 0)" xlink:href="#linear-gradient"/>
    <linearGradient id="linear-gradient-7" x1="988.68" y1="295.5" x2="1100.68" y2="295.5" xlink:href="#linear-gradient-2"/>
    <linearGradient id="linear-gradient-8" x1="1100.68" y1="329" x2="1249.68" y2="329" xlink:href="#linear-gradient-3"/>
    <linearGradient id="linear-gradient-9" x1="1249.68" y1="282" x2="1426.68" y2="282" gradientTransform="matrix(1, 0, 0, 1, 0, 0)" xlink:href="#linear-gradient"/>
    <linearGradient id="linear-gradient-10" x1="1426.68" y1="270.5" x2="1488.68" y2="270.5" xlink:href="#linear-gradient-3"/>
    <linearGradient id="linear-gradient-11" x1="1488.68" y1="270.5" x2="1619.68" y2="270.5" gradientTransform="matrix(1, 0, 0, 1, 0, 0)" xlink:href="#linear-gradient"/>
    <linearGradient id="linear-gradient-12" x1="1796.68" y1="286" x2="1872.68" y2="286" gradientTransform="matrix(1, 0, 0, 1, 0, 0)" xlink:href="#linear-gradient"/>
    <linearGradient id="linear-gradient-13" x1="1872.68" y1="296" x2="2050.68" y2="296" xlink:href="#linear-gradient-3"/>
    <linearGradient id="linear-gradient-14" x1="2050.68" y1="235" x2="2141.68" y2="235" gradientTransform="matrix(1, 0, 0, 1, 0, 0)" xlink:href="#linear-gradient"/>
    <linearGradient id="linear-gradient-15" x1="-842.07" y1="2004.37" x2="-1265.07" y2="2004.37" gradientTransform="translate(-1942.66 -829.16) rotate(-90)" gradientUnits="userSpaceOnUse">
      <stop offset="0" stop-color="#6aa7b0"/>
      <stop offset="0" stop-color="#86cfc3"/>
      <stop offset="1" stop-color="#fff"/>
    </linearGradient>
    <linearGradient id="linear-gradient-16" x1="182.5" y1="108" x2="182.5" y2="480" gradientUnits="userSpaceOnUse">
      <stop offset="0" stop-color="#6aa7b0"/>
      <stop offset="0" stop-color="#539488"/>
      <stop offset=".43" stop-color="#a2c5be"/>
      <stop offset=".82" stop-color="#e5eeed"/>
      <stop offset="1" stop-color="#fff"/>
    </linearGradient>
    <linearGradient id="linear-gradient-17" x1="289.5" y1="108" x2="289.5" y2="490" gradientUnits="userSpaceOnUse">
      <stop offset="0" stop-color="#6aa7b0"/>
      <stop offset="0" stop-color="#71c5b6"/>
      <stop offset=".4" stop-color="#afded6"/>
      <stop offset=".8" stop-color="#e8f5f3"/>
      <stop offset="1" stop-color="#fff"/>
    </linearGradient>
    <linearGradient id="linear-gradient-18" x1="485.5" y1="255" x2="485.5" y2="520" gradientUnits="userSpaceOnUse">
      <stop offset="0" stop-color="#6aa7b0"/>
      <stop offset="0" stop-color="#6ec1b1"/>
      <stop offset=".03" stop-color="#73c3b4"/>
      <stop offset=".26" stop-color="#a5d8ce"/>
      <stop offset=".48" stop-color="#cce9e3"/>
      <stop offset=".69" stop-color="#e8f5f2"/>
      <stop offset=".87" stop-color="#f9fcfb"/>
      <stop offset="1" stop-color="#fff"/>
    </linearGradient>
    <linearGradient id="linear-gradient-19" x1="670.5" y1="275" x2="670.5" y2="490" gradientTransform="matrix(1, 0, 0, 1, 0, 0)" xlink:href="#linear-gradient-15"/>
    <linearGradient id="linear-gradient-20" x1="742.5" y1="275" x2="742.5" y2="540" gradientUnits="userSpaceOnUse">
      <stop offset="0" stop-color="#6aa7b0"/>
      <stop offset="0" stop-color="#71c5b6"/>
      <stop offset="0" stop-color="#71c5b6"/>
      <stop offset=".35" stop-color="#aeddd5"/>
      <stop offset=".64" stop-color="#d9efeb"/>
      <stop offset=".87" stop-color="#f4faf9"/>
      <stop offset="1" stop-color="#fff"/>
    </linearGradient>
    <linearGradient id="linear-gradient-21" x1="883" y1="247" x2="883" y2="430" gradientTransform="matrix(1, 0, 0, 1, 0, 0)" xlink:href="#linear-gradient-15"/>
    <linearGradient id="linear-gradient-22" x1="1044" y1="247" x2="1044" y2="480" gradientUnits="userSpaceOnUse">
      <stop offset="0" stop-color="#6aa7b0"/>
      <stop offset="0" stop-color="#539488"/>
      <stop offset=".17" stop-color="#81b0a7"/>
      <stop offset=".36" stop-color="#adccc6"/>
      <stop offset=".54" stop-color="#d1e2df"/>
      <stop offset=".72" stop-color="#eaf2f0"/>
      <stop offset=".87" stop-color="#f9fbfb"/>
      <stop offset="1" stop-color="#fff"/>
    </linearGradient>
    <linearGradient id="linear-gradient-23" x1="1174.5" y1="314" x2="1174.5" y2="480" gradientUnits="userSpaceOnUse">
      <stop offset="0" stop-color="#6aa7b0"/>
      <stop offset="0" stop-color="#71c5b6"/>
      <stop offset="1" stop-color="#fff"/>
    </linearGradient>
    <linearGradient id="linear-gradient-24" x1="1337.5" y1="220" x2="1337.5" y2="430" gradientUnits="userSpaceOnUse">
      <stop offset="0" stop-color="#6aa7b0"/>
      <stop offset="0" stop-color="#86cfc3"/>
      <stop offset="1" stop-color="#fff"/>
    </linearGradient>
    <linearGradient id="linear-gradient-25" x1="1457" y1="197" x2="1457" y2="460" gradientUnits="userSpaceOnUse">
      <stop offset="0" stop-color="#71c5b6"/>
      <stop offset="1" stop-color="#fff"/>
    </linearGradient>
    <linearGradient id="linear-gradient-26" x1="1553.5" y1="197" x2="1553.5" y2="510" gradientTransform="matrix(1, 0, 0, 1, 0, 0)" xlink:href="#linear-gradient-15"/>
    <linearGradient id="linear-gradient-27" x1="1707.5" y1="228" x2="1707.5" y2="540" gradientUnits="userSpaceOnUse">
      <stop offset="0" stop-color="#6aa7b0"/>
      <stop offset="0" stop-color="#5aa395"/>
      <stop offset=".23" stop-color="#8dbfb6"/>
      <stop offset=".48" stop-color="#bedad5"/>
      <stop offset=".7" stop-color="#e1eeec"/>
      <stop offset=".88" stop-color="#f7faf9"/>
      <stop offset="1" stop-color="#fff"/>
    </linearGradient>
    <linearGradient id="linear-gradient-28" x1="1834" y1="231" x2="1834" y2="463" gradientTransform="matrix(1, 0, 0, 1, 0, 0)" xlink:href="#linear-gradient-15"/>
    <linearGradient id="linear-gradient-29" x1="1961" y1="251" x2="1961" y2="423" xlink:href="#linear-gradient-25"/>
    <linearGradient id="linear-gradient-30" x1="2095.5" y1="126" x2="2095.5" y2="500" gradientUnits="userSpaceOnUse">
      <stop offset="0" stop-color="#86cfc3"/>
      <stop offset="0" stop-color="#86cfc3"/>
      <stop offset="1" stop-color="#fff"/>
    </linearGradient>
    <linearGradient id="linear-gradient-31" x1="-1207.82" y1="2005.04" x2="-836.82" y2="2005.04" xlink:href="#linear-gradient"/>
    <linearGradient id="linear-gradient-32" x1="123.67" y1="232.17" x2="242.67" y2="232.17" xlink:href="#linear-gradient-2"/>
    <linearGradient id="linear-gradient-33" x1="242.67" y1="232.17" x2="337.67" y2="232.17" xlink:href="#linear-gradient-3"/>
    <linearGradient id="linear-gradient-34" x1="337.67" y1="305.67" x2="634.67" y2="305.67" gradientTransform="matrix(1, 0, 0, 1, 0, 0)" xlink:href="#linear-gradient"/>
    <linearGradient id="linear-gradient-35" x1="707.67" y1="315.67" x2="778.67" y2="315.67" xlink:href="#linear-gradient-3"/>
    <linearGradient id="linear-gradient-36" x1="778.67" y1="301.67" x2="988.67" y2="301.67" gradientTransform="matrix(1, 0, 0, 1, 0, 0)" xlink:href="#linear-gradient"/>
    <linearGradient id="linear-gradient-37" x1="988.67" y1="301.67" x2="1100.67" y2="301.67" xlink:href="#linear-gradient-2"/>
    <linearGradient id="linear-gradient-38" x1="1100.67" y1="335.17" x2="1249.67" y2="335.17" xlink:href="#linear-gradient-3"/>
    <linearGradient id="linear-gradient-39" x1="1249.67" y1="288.17" x2="1426.67" y2="288.17" gradientTransform="matrix(1, 0, 0, 1, 0, 0)" xlink:href="#linear-gradient"/>
    <linearGradient id="linear-gradient-40" x1="1426.67" y1="276.67" x2="1488.67" y2="276.67" xlink:href="#linear-gradient-3"/>
    <linearGradient id="linear-gradient-41" x1="1488.67" y1="276.67" x2="1619.67" y2="276.67" gradientTransform="matrix(1, 0, 0, 1, 0, 0)" xlink:href="#linear-gradient"/>
    <linearGradient id="linear-gradient-42" x1="1796.67" y1="292.17" x2="1872.67" y2="292.17" gradientTransform="matrix(1, 0, 0, 1, 0, 0)" xlink:href="#linear-gradient"/>
    <linearGradient id="linear-gradient-43" x1="1872.67" y1="302.17" x2="2050.67" y2="302.17" xlink:href="#linear-gradient-3"/>
    <linearGradient id="linear-gradient-44" x1="2050.67" y1="241.17" x2="2141.67" y2="241.17" gradientTransform="matrix(1, 0, 0, 1, 0, 0)" xlink:href="#linear-gradient"/>
  </defs>
  <g>
    <g class="cls-11">
      <polygon class="cls-1" points="124.1 132.24 124.1 374 .68 374 .68 0 124.1 132.24"/>
      <polygon class="cls-7" points="242.68 374 123.68 374 123.68 132 242.68 78 242.68 374"/>
      <polygon class="cls-5" points="337.68 374 242.68 374 242.68 78 337.68 225 337.68 374"/>
      <polygon class="cls-6" points="634.68 374 337.68 374 337.68 225 634.68 298 634.68 374"/>
      <polygon class="cls-2" points="707.68 374 634.68 374 634.68 298 707.68 245 707.68 374"/>
      <polygon class="cls-10" points="778.68 374 707.68 374 707.68 245 778.68 319 778.68 374"/>
      <polygon class="cls-8" points="988.68 374 778.68 374 778.68 319 988.68 217 988.68 374"/>
      <polygon class="cls-9" points="1100.68 374 988.68 374 988.68 217 1100.68 284 1100.68 374"/>
      <polygon class="cls-3" points="1249.68 374 1100.68 374 1100.68 284 1249.68 328 1249.68 374"/>
      <polygon class="cls-4" points="1426.68 374 1249.68 374 1249.68 328 1426.68 190 1426.68 374"/>
      <polygon class="cls-29" points="1488.68 374 1426.68 374 1426.68 190 1488.68 167 1488.68 374"/>
      <polygon class="cls-30" points="1619.68 374 1488.68 374 1488.68 167 1619.68 241 1619.68 374"/>
      <polygon class="cls-2" points="1796.68 374 1619.68 374 1619.68 241 1796.68 198 1796.68 374"/>
      <polygon class="cls-28" points="1872.68 374 1796.68 374 1796.68 198 1872.68 277 1872.68 374"/>
      <polygon class="cls-27" points="2050.68 374 1872.68 374 1872.68 277 2050.68 218 2050.68 374"/>
      <polygon class="cls-17" points="2141.68 374 2050.68 374 2050.68 218 2141.68 96 2141.68 374"/>
    </g>
    <polygon class="cls-23" points="123.42 162.24 123.42 453 0 453 0 30 123.42 162.24"/>
    <polygon class="cls-25" points="242 480 123 480 123 162 242 108 242 480"/>
    <polygon class="cls-26" points="337 490 242 490 242 108 337 255 337 490"/>
    <polygon class="cls-18" points="634 520 337 520 337 255 634 328 634 520"/>
    <polygon class="cls-24" points="707 490 634 490 634 328 707 275 707 490"/>
    <polygon class="cls-20" points="778 540 707 540 707 275 778 349 778 540"/>
    <polygon class="cls-21" points="988 430 778 430 778 349 988 247 988 430"/>
    <polygon class="cls-19" points="1100 480 988 480 988 247 1100 314 1100 480"/>
    <polygon class="cls-22" points="1249 480 1100 480 1100 314 1249 358 1249 480"/>
    <polygon class="cls-32" points="1426 430 1249 430 1249 358 1426 220 1426 430"/>
    <polygon class="cls-40" points="1488 460 1426 460 1426 220 1488 197 1488 460"/>
    <polygon class="cls-33" points="1619 510 1488 510 1488 197 1619 271 1619 510"/>
    <polygon class="cls-31" points="1796 540 1619 540 1619 271 1796 228 1796 540"/>
    <polygon class="cls-41" points="1872 463 1796 463 1796 231 1872 310 1872 463"/>
    <polygon class="cls-42" points="2050 423 1872 423 1872 310 2050 251 2050 423"/>
    <polygon class="cls-44" points="2141 500 2050 500 2050 248 2141 126 2141 500"/>
  </g>
  <g>
    <polygon class="cls-46" points="124.09 139.9 124.09 378.67 .67 378.67 .67 7.67 124.09 139.9"/>
    <polygon class="cls-45" points="242.67 378.67 123.67 378.67 123.67 139.67 242.67 85.67 242.67 378.67"/>
    <polygon class="cls-43" points="337.67 378.67 242.67 378.67 242.67 85.67 337.67 232.67 337.67 378.67"/>
    <polygon class="cls-37" points="634.67 378.67 337.67 378.67 337.67 232.67 634.67 305.67 634.67 378.67"/>
    <polygon class="cls-2" points="707.67 378.67 634.67 378.67 634.67 305.67 707.67 252.67 707.67 378.67"/>
    <polygon class="cls-35" points="778.67 378.67 707.67 378.67 707.67 252.67 778.67 326.67 778.67 378.67"/>
    <polygon class="cls-39" points="988.67 378.67 778.67 378.67 778.67 326.67 988.67 224.67 988.67 378.67"/>
    <polygon class="cls-36" points="1100.67 378.67 988.67 378.67 988.67 224.67 1100.67 291.67 1100.67 378.67"/>
    <polygon class="cls-34" points="1249.67 378.67 1100.67 378.67 1100.67 291.67 1249.67 335.67 1249.67 378.67"/>
    <polygon class="cls-38" points="1426.67 378.67 1249.67 378.67 1249.67 335.67 1426.67 197.67 1426.67 378.67"/>
    <polygon class="cls-13" points="1488.67 378.67 1426.67 378.67 1426.67 197.67 1488.67 174.67 1488.67 378.67"/>
    <polygon class="cls-12" points="1619.67 378.67 1488.67 378.67 1488.67 174.67 1619.67 248.67 1619.67 378.67"/>
    <polygon class="cls-2" points="1796.67 378.67 1619.67 378.67 1619.67 248.67 1796.67 205.67 1796.67 378.67"/>
    <polygon class="cls-15" points="1872.67 378.67 1796.67 378.67 1796.67 205.67 1872.67 284.67 1872.67 378.67"/>
    <polygon class="cls-14" points="2050.67 378.67 1872.67 378.67 1872.67 284.67 2050.67 225.67 2050.67 378.67"/>
    <polygon class="cls-16" points="2141.67 378.67 2050.67 378.67 2050.67 225.67 2141.67 103.67 2141.67 378.67"/>
  </g>
</svg>