<svg xmlns="http://www.w3.org/2000/svg" xmlns:xlink="http://www.w3.org/1999/xlink" viewBox="0 0 1267.81 673.16"><defs><style>.cls-1{fill:#e8e8e8;}.cls-2{fill:none;}.cls-3{fill:#397f7d;}.cls-4{fill:url(#linear-gradient);}.cls-5{fill:url(#linear-gradient-2);}.cls-6{fill:url(#linear-gradient-3);}.cls-7{isolation:isolate;}.cls-8{clip-path:url(#clip-path);}.cls-9{clip-path:url(#clip-path-2);}.cls-10{clip-path:url(#clip-path-3);}.cls-11{clip-path:url(#clip-path-4);}.cls-12{clip-path:url(#clip-path-5);}.cls-13{clip-path:url(#clip-path-6);}.cls-14{clip-path:url(#clip-path-7);}.cls-15{clip-path:url(#clip-path-8);}.cls-16{clip-path:url(#clip-path-9);}.cls-17{clip-path:url(#clip-path-10);}.cls-18{clip-path:url(#clip-path-11);}.cls-19{clip-path:url(#clip-path-12);}.cls-20{clip-path:url(#clip-path-13);}.cls-21{clip-path:url(#clip-path-14);}.cls-22{clip-path:url(#clip-path-15);}.cls-23{clip-path:url(#clip-path-16);}.cls-24{clip-path:url(#clip-path-17);}.cls-25{clip-path:url(#clip-path-18);}.cls-26{clip-path:url(#clip-path-19);}.cls-27{clip-path:url(#clip-path-20);}.cls-28{fill:#d1d1d1;}.cls-29{clip-path:url(#clip-path-21);}.cls-30{fill:#3e5173;}.cls-31{fill:#415477;}.cls-32{fill:#43577c;}.cls-33{fill:#465a80;}.cls-34{fill:#485e85;}.cls-35{fill:#4a6189;}.cls-36{fill:#4d648d;}.cls-37{fill:#4f6792;}.cls-38{fill:#526a96;}.cls-39{fill:#546d9b;}.cls-40{fill:#56709f;}.cls-41{fill:#5d78ab;}.cls-42{clip-path:url(#clip-path-22);}.cls-43{clip-path:url(#clip-path-23);}.cls-44{clip-path:url(#clip-path-24);}.cls-45{clip-path:url(#clip-path-25);}.cls-46{clip-path:url(#clip-path-26);}.cls-47{clip-path:url(#clip-path-27);}.cls-48{clip-path:url(#clip-path-28);}.cls-49{fill:#58a9a9;}.cls-50{fill:#589ea6;}.cls-51{clip-path:url(#clip-path-29);}.cls-52{clip-path:url(#clip-path-30);}.cls-53{fill:#8a8d4a;}.cls-54{fill:#b8bb62;}.cls-55{clip-path:url(#clip-path-31);}.cls-56{clip-path:url(#clip-path-32);}.cls-57{fill:#cdd16d;}.cls-58{fill:#6d6d6d;}.cls-59{opacity:0.32;}.cls-60{fill:#282828;}.cls-61{clip-path:url(#clip-path-33);}.cls-62{fill:#949494;}.cls-63{fill:#999;}.cls-64{fill:#9e9e9e;}.cls-65{fill:#a3a3a3;}.cls-66{fill:#a8a8a8;}.cls-67{fill:#adadad;}.cls-68{fill:#b3b3b3;}.cls-69{fill:#b8b8b8;}.cls-70{clip-path:url(#clip-path-34);}.cls-71{fill:#858585;}.cls-72{fill:#c5c5c5;}.cls-73{fill:#898989;}.cls-74{clip-path:url(#clip-path-35);}.cls-75{fill:#8f8f8f;}.cls-76{fill:#8a8a8a;}.cls-77{fill:#dcdcdc;}.cls-78{clip-path:url(#clip-path-36);}.cls-79{fill:#ccc;}.cls-80{fill:#c7c7c7;}.cls-81{fill:#c2c2c2;}.cls-82{fill:#bdbdbd;}.cls-83{clip-path:url(#clip-path-37);}.cls-84{fill:#888;}.cls-85{fill:#dbdbdb;}.cls-86{clip-path:url(#clip-path-38);}.cls-87{fill:#212121;}.cls-88{fill:#eaeaea;}.cls-89{fill:#353535;}.cls-90{fill:#5e5e5e;}.cls-91{clip-path:url(#clip-path-39);}.cls-92{fill:#646464;}.cls-93{fill:#686868;}.cls-94{fill:#6c6c6c;}.cls-95{fill:#707070;}.cls-96{clip-path:url(#clip-path-40);}.cls-97{fill:#bbb;}.cls-98{fill:#787878;}.cls-99{clip-path:url(#clip-path-41);}.cls-100{fill:#aaa;}.cls-101{opacity:0.44;}.cls-102{clip-path:url(#clip-path-42);}.cls-103{fill:url(#linear-gradient-5);}.cls-104{fill:url(#linear-gradient-6);}.cls-105{fill:url(#linear-gradient-7);}.cls-106{fill:url(#linear-gradient-8);}.cls-107{fill:url(#linear-gradient-9);}.cls-108{fill:url(#linear-gradient-10);}.cls-109{fill:url(#linear-gradient-11);}.cls-110{fill:url(#linear-gradient-12);}.cls-111{clip-path:url(#clip-path-43);}.cls-112{fill:url(#linear-gradient-15);}.cls-113{fill:url(#linear-gradient-16);}.cls-114{clip-path:url(#clip-path-44);}.cls-115{fill:url(#linear-gradient-18);}.cls-116{fill:url(#linear-gradient-19);}.cls-117{fill:url(#linear-gradient-20);}.cls-118{fill:url(#linear-gradient-21);}.cls-119{fill:url(#linear-gradient-22);}.cls-120{fill:url(#linear-gradient-23);}.cls-121{fill:url(#linear-gradient-24);}.cls-122{fill:url(#linear-gradient-25);}.cls-123{fill:url(#linear-gradient-26);}.cls-124{fill:url(#linear-gradient-27);}.cls-125{fill:url(#linear-gradient-28);}</style><linearGradient id="linear-gradient" x1="781.73" y1="320.5" x2="781.73" y2="370.73" gradientUnits="userSpaceOnUse"><stop offset="0" stop-color="#fff" stop-opacity="0"/><stop offset="0.09" stop-color="#fbffff" stop-opacity="0.02"/><stop offset="0.22" stop-color="#eefffe" stop-opacity="0.09"/><stop offset="0.36" stop-color="#d9fffc" stop-opacity="0.2"/><stop offset="0.52" stop-color="#bcfffa" stop-opacity="0.35"/><stop offset="0.68" stop-color="#97fff7" stop-opacity="0.54"/><stop offset="0.85" stop-color="#6afff4" stop-opacity="0.77"/><stop offset="1" stop-color="#3ffff1"/></linearGradient><linearGradient id="linear-gradient-2" x1="499.21" y1="320.42" x2="499.21" y2="370.73" xlink:href="#linear-gradient"/><linearGradient id="linear-gradient-3" x1="640.91" y1="400.92" x2="640.91" y2="447.94" xlink:href="#linear-gradient"/><clipPath id="clip-path"><polygon class="cls-1" points="117.96 657.25 117.96 657.25 117.95 657.25 117.96 657.25"/></clipPath><clipPath id="clip-path-2"><path class="cls-1" d="M118,657.25h0a19,19,0,0,1,8.16,2.29A19,19,0,0,0,118,657.25Z"/></clipPath><clipPath id="clip-path-3"><polygon class="cls-1" points="126.13 659.54 126.13 659.54 126.12 659.53 126.13 659.54"/></clipPath><clipPath id="clip-path-4"><path class="cls-1" d="M106.64,659.53h0A20.51,20.51,0,0,1,118,657.25,20.51,20.51,0,0,0,106.64,659.53Z"/></clipPath><clipPath id="clip-path-5"><polygon class="cls-1" points="106.64 659.53 106.64 659.53 106.64 659.53 106.64 659.53"/></clipPath><clipPath id="clip-path-6"><polygon class="cls-1" points="122.28 661.82 122.28 661.82 122.29 661.82 122.28 661.82"/></clipPath><clipPath id="clip-path-7"><path class="cls-1" d="M122.28,661.82h0a13,13,0,0,0-11.79,0A13,13,0,0,1,122.28,661.82Z"/></clipPath><clipPath id="clip-path-8"><path class="cls-1" d="M110.48,661.83h0Z"/></clipPath><clipPath id="clip-path-9"><path class="cls-1" d="M126.13,659.54h0c2.32,1.34,3.64,3,4,4.78C129.77,662.57,128.45,660.88,126.13,659.54Z"/></clipPath><clipPath id="clip-path-10"><path class="cls-1" d="M130.11,664.33h0Z"/></clipPath><clipPath id="clip-path-11"><path class="cls-1" d="M122.34,668.65c3.23-1.89,3.21-4.94,0-6.83C125.55,663.71,125.57,666.76,122.34,668.65Z"/></clipPath><clipPath id="clip-path-12"><path class="cls-1" d="M122.34,668.65h0Z"/></clipPath><clipPath id="clip-path-13"><path class="cls-1" d="M110.48,661.83c-3.23,1.88-3.21,4.94,0,6.82C107.27,666.77,107.25,663.71,110.48,661.83Z"/></clipPath><clipPath id="clip-path-14"><path class="cls-1" d="M110.54,668.66h0Z"/></clipPath><clipPath id="clip-path-15"><path class="cls-1" d="M110.54,668.66a13,13,0,0,0,11.79,0A13,13,0,0,1,110.54,668.66Z"/></clipPath><clipPath id="clip-path-16"><path class="cls-1" d="M130.11,664.33c.44,2.31-.87,4.72-3.93,6.49C129.24,669.05,130.55,666.64,130.11,664.33Z"/></clipPath><clipPath id="clip-path-17"><path class="cls-1" d="M126.17,670.83Z"/></clipPath><clipPath id="clip-path-18"><path class="cls-1" d="M106.68,670.81h0c-5.38-3.11-5.4-8.16,0-11.27C101.28,662.65,101.3,667.7,106.68,670.81Z"/></clipPath><clipPath id="clip-path-19"><path class="cls-1" d="M106.68,670.81Z"/></clipPath><clipPath id="clip-path-20"><path class="cls-1" d="M126.17,670.83h0c-5.37,3.11-14.08,3.11-19.47,0C112.09,673.94,120.8,673.94,126.17,670.83Z"/></clipPath><clipPath id="clip-path-21"><path class="cls-2" d="M643.3,287l0,12.12a7.65,7.65,0,0,0-7,0l0-12.12A7.63,7.63,0,0,1,643.3,287Z"/></clipPath><clipPath id="clip-path-22"><path class="cls-3" d="M780,367.12l0,12.12a2.48,2.48,0,0,0-1.46-2l0-12.12A2.46,2.46,0,0,1,780,367.12Z"/></clipPath><clipPath id="clip-path-23"><path class="cls-3" d="M500.53,379.21l0-12.12a2.46,2.46,0,0,1,1.43-2l0,12.12A2.44,2.44,0,0,0,500.53,379.21Z"/></clipPath><clipPath id="clip-path-24"><path class="cls-3" d="M780,379.23a2.44,2.44,0,0,1-1.43,2l0-12.12a2.42,2.42,0,0,0,1.43-2C780,370.74,779.94,375.59,780,379.23Z"/></clipPath><clipPath id="clip-path-25"><path class="cls-3" d="M502,381.25a2.48,2.48,0,0,1-1.45-2l0-12.12a2.46,2.46,0,0,0,1.46,2C502,372.76,502,377.61,502,381.25Z"/></clipPath><clipPath id="clip-path-26"><path class="cls-3" d="M783.74,367.13l0,12.12c0,1.28-.85,2.56-2.53,3.53l0-12.12C782.9,369.69,783.74,368.41,783.74,367.13Z"/></clipPath><clipPath id="clip-path-27"><path class="cls-3" d="M496.77,379.2l0-12.12c0,1.3.85,2.6,2.56,3.59l0,12.12C497.62,381.8,496.77,380.5,496.77,379.2Z"/></clipPath><clipPath id="clip-path-28"><path class="cls-3" d="M644.21,447.2l0,12.12a7.71,7.71,0,0,1-7,0l0-12.12A7.71,7.71,0,0,0,644.21,447.2Z"/></clipPath><clipPath id="clip-path-29"><path class="cls-3" d="M646.87,448.74l0,12.12a13.58,13.58,0,0,1-12.29,0l0-12.12A13.56,13.56,0,0,0,646.87,448.74Z"/></clipPath><clipPath id="clip-path-30"><path class="cls-2" d="M691.14,362.8v1.46c0,1.68-1.12,3.37-3.33,4.66v-1.46C690,366.17,691.14,364.48,691.14,362.8Z"/></clipPath><clipPath id="clip-path-31"><path class="cls-2" d="M588.65,364.19v-1.46c0,1.71,1.12,3.42,3.38,4.73v1.46C589.78,367.61,588.65,365.9,588.65,364.19Z"/></clipPath><clipPath id="clip-path-32"><path class="cls-2" d="M648.16,390.5V392c-4.46,2.59-11.72,2.59-16.22,0V390.5C636.44,393.09,643.7,393.09,648.16,390.5Z"/></clipPath><clipPath id="clip-path-33"><path class="cls-2" d="M786.55,263.23v4.67c0,1.28-.85,2.56-2.53,3.54v-4.66C785.71,265.8,786.55,264.52,786.55,263.23Z"/></clipPath><clipPath id="clip-path-34"><path class="cls-2" d="M502,300.19v-4.67c0,1.3.86,2.61,2.58,3.6v4.67C502.87,302.79,502,301.49,502,300.19Z"/></clipPath><clipPath id="clip-path-35"><path class="cls-2" d="M624.47,359.5v4.67a13.6,13.6,0,0,1-12.33,0V359.5A13.6,13.6,0,0,0,624.47,359.5Z"/></clipPath><clipPath id="clip-path-36"><path class="cls-2" d="M664.6,62.69,667,64.1a3.66,3.66,0,0,0-3.69.36l-2.42-1.41A3.68,3.68,0,0,1,664.6,62.69Z"/></clipPath><clipPath id="clip-path-37"><path class="cls-2" d="M501.48,293.53l-2.42-1.4a3.64,3.64,0,0,1-1.51-3.33l2.42,1.41A3.64,3.64,0,0,0,501.48,293.53Z"/></clipPath><clipPath id="clip-path-38"><path class="cls-2" d="M499.62,164.94l-2.42-1.4a11.38,11.38,0,0,1,5.16-8.95l2.42,1.41A11.41,11.41,0,0,0,499.62,164.94Z"/></clipPath><clipPath id="clip-path-39"><path class="cls-2" d="M629.34,308.54v-1.11a2.43,2.43,0,0,1,1.43-2v1.11A2.45,2.45,0,0,0,629.34,308.54Z"/></clipPath><clipPath id="clip-path-40"><path class="cls-2" d="M733.06,288.55v1.11a2.47,2.47,0,0,0-1.45-2v-1.11A2.47,2.47,0,0,1,733.06,288.55Z"/></clipPath><clipPath id="clip-path-41"><path class="cls-2" d="M694,269.92v-1.11a7.65,7.65,0,0,1,7,0v1.11A7.63,7.63,0,0,0,694,269.92Z"/></clipPath><clipPath id="clip-path-42"><path class="cls-4" d="M784,320.5l-.5,44.72c0,2-1.32,4-3.94,5.51L780,326C782.63,324.48,784,322.49,784,320.5Z"/></clipPath><linearGradient id="linear-gradient-5" x1="783.7" y1="320.5" x2="783.7" y2="365.34" xlink:href="#linear-gradient"/><linearGradient id="linear-gradient-6" x1="783.66" y1="320.62" x2="783.66" y2="366.11" xlink:href="#linear-gradient"/><linearGradient id="linear-gradient-7" x1="783.5" y1="321.39" x2="783.5" y2="366.88" xlink:href="#linear-gradient"/><linearGradient id="linear-gradient-8" x1="783.21" y1="322.16" x2="783.21" y2="367.65" xlink:href="#linear-gradient"/><linearGradient id="linear-gradient-9" x1="782.76" y1="322.93" x2="782.76" y2="368.46" xlink:href="#linear-gradient"/><linearGradient id="linear-gradient-10" x1="782.06" y1="323.73" x2="782.06" y2="369.36" xlink:href="#linear-gradient"/><linearGradient id="linear-gradient-11" x1="780.78" y1="324.64" x2="780.78" y2="370.63" xlink:href="#linear-gradient"/><linearGradient id="linear-gradient-12" x1="779.84" y1="325.91" x2="779.84" y2="370.73" xlink:href="#linear-gradient"/><clipPath id="clip-path-43"><path class="cls-5" d="M497,365.14l.5-44.72c0,2,1.34,4.05,4,5.59l-.5,44.72C498.29,369.19,497,367.16,497,365.14Z"/></clipPath><linearGradient id="linear-gradient-15" x1="706.32" y1="370.84" x2="724.01" y2="400.91" xlink:href="#linear-gradient"/><linearGradient id="linear-gradient-16" x1="573.92" y1="371.76" x2="538.26" y2="437.26" gradientUnits="userSpaceOnUse"><stop offset="0" stop-color="#fff" stop-opacity="0"/><stop offset="0.05" stop-color="#fbffff" stop-opacity="0.02"/><stop offset="0.11" stop-color="#eefffe" stop-opacity="0.09"/><stop offset="0.19" stop-color="#d9fffc" stop-opacity="0.2"/><stop offset="0.27" stop-color="#bcfffa" stop-opacity="0.35"/><stop offset="0.35" stop-color="#97fff7" stop-opacity="0.54"/><stop offset="0.44" stop-color="#6afff4" stop-opacity="0.77"/><stop offset="0.52" stop-color="#3ffff1"/></linearGradient><clipPath id="clip-path-44"><path class="cls-6" d="M650.76,400.92l-.5,44.73c-5.29,3.06-13.88,3.06-19.2,0l.5-44.73C636.88,404,645.47,404,650.76,400.92Z"/></clipPath><linearGradient id="linear-gradient-18" x1="649.02" y1="400.92" x2="649.02" y2="446.95" xlink:href="#linear-gradient"/><linearGradient id="linear-gradient-19" x1="646.25" y1="402.23" x2="646.25" y2="447.59" xlink:href="#linear-gradient"/><linearGradient id="linear-gradient-20" x1="644.1" y1="402.87" x2="644.1" y2="447.83" xlink:href="#linear-gradient"/><linearGradient id="linear-gradient-21" x1="642.48" y1="403.11" x2="642.48" y2="447.93" xlink:href="#linear-gradient"/><linearGradient id="linear-gradient-22" x1="641.03" y1="403.21" x2="641.03" y2="447.94" xlink:href="#linear-gradient"/><linearGradient id="linear-gradient-23" x1="639.67" y1="403.14" x2="639.67" y2="447.94" xlink:href="#linear-gradient"/><linearGradient id="linear-gradient-24" x1="638.34" y1="403" x2="638.34" y2="447.87" xlink:href="#linear-gradient"/><linearGradient id="linear-gradient-25" x1="637" y1="402.76" x2="637" y2="447.72" xlink:href="#linear-gradient"/><linearGradient id="linear-gradient-26" x1="635.62" y1="402.42" x2="635.62" y2="447.48" xlink:href="#linear-gradient"/><linearGradient id="linear-gradient-27" x1="634.09" y1="401.86" x2="634.09" y2="447.14" xlink:href="#linear-gradient"/><linearGradient id="linear-gradient-28" x1="632.29" y1="400.92" x2="632.29" y2="446.58" xlink:href="#linear-gradient"/></defs><title>Asset 1laptop-chip-isometric</title><g id="Layer_2" data-name="Layer 2"><g id="Layer_1-2" data-name="Layer 1"><g id="Laptop_and_chip" data-name="Laptop and chip"><polygon class="cls-1" points="181.12 627.69 173.8 639.1 161.45 631.97 168.77 620.56 181.12 627.69"/><path class="cls-1" d="M133.76,626.52c.52,2.36-.77,4.83-3.89,6.64-5.36,3.12-14.09,3.12-19.49,0s-5.42-8.17-.06-11.29a20.51,20.51,0,0,1,11.44-2.27,19.16,19.16,0,0,1,8,2.27C132.07,623.18,133.39,624.82,133.76,626.52ZM114.22,631A13,13,0,0,0,126,631c3.25-1.89,3.23-4.94,0-6.83a13,13,0,0,0-11.79,0c-3.25,1.89-3.23,4.94,0,6.83"/><g class="cls-7"><polygon class="cls-1" points="492.68 406.47 335.45 497.83 323.11 490.7 480.33 399.34 492.68 406.47"/><polygon class="cls-1" points="335.45 497.83 299.91 505.02 287.56 497.89 323.11 490.7 335.45 497.83"/><path class="cls-1" d="M514.83,523.94c.44,2.32-.86,4.73-3.92,6.51-5.36,3.11-14.09,3.11-19.49,0s-5.42-8.17-.06-11.29a20.43,20.43,0,0,1,11.21-2.29,19.08,19.08,0,0,1,8.28,2.29C513.17,520.5,514.5,522.2,514.83,523.94Zm-19.57,4.34a13,13,0,0,0,11.79,0c3.25-1.89,3.23-4.95,0-6.83a13,13,0,0,0-11.79,0c-3.25,1.88-3.23,4.94,0,6.83"/><path class="cls-1" d="M605.24,471.46,514.87,524c-.37-1.77-1.7-3.47-4-4.81a19.08,19.08,0,0,0-8.28-2.29l90.32-52.54Z"/><polygon class="cls-1" points="299.91 505.02 233.36 543.69 221.01 536.57 287.56 497.89 299.91 505.02"/><polygon class="cls-1" points="515 419.36 294.4 547.55 282.06 540.43 502.66 412.23 515 419.36"/><polygon class="cls-1" points="537.43 432.31 336.67 548.98 324.32 541.85 525.09 425.18 537.43 432.31"/><polygon class="cls-1" points="233.36 543.69 188.62 557.65 176.27 550.53 221.01 536.57 233.36 543.69"/><polygon class="cls-1" points="282.06 540.43 294.4 547.55 240.86 564.49 228.51 557.36 282.06 540.43"/><polygon class="cls-1" points="336.67 548.98 268.21 577.08 255.87 569.95 324.32 541.85 336.67 548.98"/><path class="cls-1" d="M559.86,445.26,288.55,602.93c-.29-1.8-1.63-3.56-4-4.94a19.24,19.24,0,0,0-8.18-2.29L547.52,438.13Z"/><path class="cls-1" d="M288.55,602.93c.35,2.27-1,4.61-3.95,6.35-5.36,3.11-14.09,3.11-19.49,0s-5.43-8.17-.06-11.29a20.59,20.59,0,0,1,11.31-2.29,19.24,19.24,0,0,1,8.18,2.29C286.92,599.37,288.26,601.13,288.55,602.93ZM269,607.11a13,13,0,0,0,11.79,0c3.25-1.89,3.23-5,0-6.83a13,13,0,0,0-11.79,0c-3.25,1.88-3.23,4.94,0,6.83"/><path class="cls-1" d="M240.86,564.49,133.94,626.62a8.43,8.43,0,0,0-4.13-4.75,19.16,19.16,0,0,0-8-2.27l106.75-62.24Z"/><polygon class="cls-1" points="268.21 577.08 181.12 627.69 168.77 620.56 255.87 569.95 268.21 577.08"/><polygon class="cls-1" points="582.19 458.15 251.19 650.5 238.84 643.38 569.85 451.02 582.19 458.15"/><path class="cls-1" d="M188.62,557.65,27.52,651.28c-.38-1.78-1.71-3.47-4-4.81a19.23,19.23,0,0,0-8.28-2.3l161.06-93.64Z"/></g><path class="cls-1" d="M173.8,639.1l-43.55,25.31-.15-.09c-.33-1.75-1.66-3.44-4-4.78a19.05,19.05,0,0,0-8.17-2.29L161.45,632Z"/><g class="cls-7"><g class="cls-7"><polygon class="cls-1" points="117.96 657.25 117.96 657.25 117.95 657.25 117.96 657.25"/><g class="cls-8"><g class="cls-7"><polyline class="cls-1" points="117.95 657.25 117.96 657.25 117.95 657.25"/></g></g></g><g class="cls-7"><path class="cls-1" d="M118,657.25h0a19,19,0,0,1,8.16,2.29A19,19,0,0,0,118,657.25Z"/><g class="cls-9"><g class="cls-7"><path class="cls-1" d="M118,657.25h0a19,19,0,0,1,8.16,2.29,19,19,0,0,0-8.16-2.29"/></g></g></g><g class="cls-7"><polygon class="cls-1" points="126.13 659.54 126.13 659.54 126.12 659.53 126.13 659.54"/><g class="cls-10"><g class="cls-7"><polyline class="cls-1" points="126.12 659.53 126.13 659.54 126.12 659.53"/></g></g></g><g class="cls-7"><path class="cls-1" d="M106.64,659.53h0A20.51,20.51,0,0,1,118,657.25,20.51,20.51,0,0,0,106.64,659.53Z"/><g class="cls-11"><g class="cls-7"><path class="cls-1" d="M106.64,659.53h0A20.51,20.51,0,0,1,118,657.25a20.51,20.51,0,0,0-11.31,2.28"/></g></g></g><g class="cls-7"><polygon class="cls-1" points="106.64 659.53 106.64 659.53 106.64 659.53 106.64 659.53"/><g class="cls-12"><g class="cls-7"><polyline class="cls-1" points="106.64 659.53 106.64 659.53 106.64 659.53"/></g></g></g><g class="cls-7"><polygon class="cls-1" points="122.28 661.82 122.28 661.82 122.29 661.82 122.28 661.82"/><g class="cls-13"><g class="cls-7"><polyline class="cls-1" points="122.29 661.82 122.28 661.82 122.29 661.82"/></g></g></g><g class="cls-7"><path class="cls-1" d="M122.28,661.82h0a13,13,0,0,0-11.79,0A13,13,0,0,1,122.28,661.82Z"/><g class="cls-14"><g class="cls-7"><path class="cls-1" d="M122.28,661.82h0a13,13,0,0,0-11.79,0,13,13,0,0,1,11.79,0"/></g></g></g><g class="cls-7"><path class="cls-1" d="M110.48,661.83h0Z"/><g class="cls-15"><g class="cls-7"><polyline class="cls-1" points="110.49 661.82 110.48 661.83 110.49 661.82"/></g></g></g><g class="cls-7"><path class="cls-1" d="M126.13,659.54h0c2.32,1.34,3.64,3,4,4.78C129.77,662.57,128.45,660.88,126.13,659.54Z"/><g class="cls-16"><g class="cls-7"><path class="cls-1" d="M126.13,659.54h0c2.32,1.34,3.64,3,4,4.78-.33-1.75-1.65-3.44-4-4.78"/></g></g></g><g class="cls-7"><path class="cls-1" d="M130.11,664.33h0Z"/><g class="cls-17"><g class="cls-7"><polyline class="cls-1" points="130.1 664.32 130.11 664.33 130.1 664.32"/></g></g></g><g class="cls-7"><path class="cls-1" d="M122.34,668.65c3.23-1.89,3.21-4.94,0-6.83C125.55,663.71,125.57,666.76,122.34,668.65Z"/><g class="cls-18"><g class="cls-7"><path class="cls-1" d="M122.34,668.65c3.23-1.89,3.21-4.94,0-6.83,3.26,1.89,3.28,4.94,0,6.83"/></g></g></g><g class="cls-7"><path class="cls-1" d="M122.34,668.65h0Z"/><g class="cls-19"><g class="cls-7"><polyline class="cls-1" points="122.33 668.65 122.34 668.65 122.33 668.65"/></g></g></g><g class="cls-7"><path class="cls-1" d="M110.48,661.83c-3.23,1.88-3.21,4.94,0,6.82C107.27,666.77,107.25,663.71,110.48,661.83Z"/><g class="cls-20"><g class="cls-7"><path class="cls-1" d="M110.48,661.83c-3.23,1.88-3.21,4.94,0,6.82-3.26-1.88-3.28-4.94,0-6.82"/></g></g></g><g class="cls-7"><path class="cls-1" d="M110.54,668.66h0Z"/><g class="cls-21"><g class="cls-7"><polyline class="cls-1" points="110.53 668.65 110.54 668.66 110.53 668.65"/></g></g></g><g class="cls-7"><path class="cls-1" d="M110.54,668.66a13,13,0,0,0,11.79,0A13,13,0,0,1,110.54,668.66Z"/><g class="cls-22"><g class="cls-7"><path class="cls-1" d="M110.54,668.66a13,13,0,0,0,11.79,0,13,13,0,0,1-11.79,0"/></g></g></g><g class="cls-7"><path class="cls-1" d="M130.11,664.33c.44,2.31-.87,4.72-3.93,6.49C129.24,669.05,130.55,666.64,130.11,664.33Z"/><g class="cls-23"><g class="cls-7"><path class="cls-1" d="M130.11,664.33c.44,2.31-.87,4.72-3.93,6.49,3.06-1.77,4.37-4.18,3.93-6.49"/></g></g></g><g class="cls-7"><path class="cls-1" d="M126.17,670.83Z"/><g class="cls-24"><g class="cls-7"><path class="cls-1" d="M126.18,670.82h0"/></g></g></g><g class="cls-7"><path class="cls-1" d="M106.68,670.81h0c-5.38-3.11-5.4-8.16,0-11.27C101.28,662.65,101.3,667.7,106.68,670.81Z"/><g class="cls-25"><g class="cls-7"><path class="cls-1" d="M106.68,670.81h0c-5.38-3.11-5.4-8.16,0-11.27-5.36,3.11-5.34,8.16,0,11.27"/></g></g></g><g class="cls-7"><path class="cls-1" d="M106.68,670.81Z"/><g class="cls-26"><g class="cls-7"><path class="cls-1" d="M106.7,670.82h0"/></g></g></g><g class="cls-7"><path class="cls-1" d="M126.17,670.83h0c-5.37,3.11-14.08,3.11-19.47,0C112.09,673.94,120.8,673.94,126.17,670.83Z"/><g class="cls-27"><g class="cls-7"><path class="cls-1" d="M126.17,670.83h0c-5.37,3.11-14.08,3.11-19.47,0,5.39,3.12,14.1,3.12,19.47,0"/></g></g></g></g><path class="cls-1" d="M27.47,651.25c.45,2.32-.86,4.73-3.92,6.5-5.36,3.12-14.08,3.12-19.48,0s-5.43-8.17-.07-11.28a20.52,20.52,0,0,1,11.21-2.3,19.23,19.23,0,0,1,8.28,2.3C25.81,647.81,27.14,649.5,27.47,651.25ZM7.9,655.58a13,13,0,0,0,11.8,0c3.24-1.88,3.22-4.94,0-6.83a13,13,0,0,0-11.8,0c-3.24,1.89-3.23,5,0,6.83"/><polygon class="cls-1" points="1012.67 189.83 944.28 217.9 931.95 210.78 1000.33 182.71 1012.67 189.83"/><path class="cls-1" d="M1263.72,102.18c5.43,3.14,5.46,8.22.07,11.36a20.58,20.58,0,0,1-11.18,2.31,19.44,19.44,0,0,1-8.43-2.31c-2.27-1.32-3.6-3-4-4.68-.53-2.37.78-4.86,3.92-6.68C1249.51,99,1258.29,99,1263.72,102.18Zm-15.28,9.07a12.9,12.9,0,0,0,11.7,0c3.22-1.88,3.2-4.91,0-6.78a12.9,12.9,0,0,0-11.7,0c-3.22,1.87-3.2,4.9,0,6.78"/><g class="cls-7"><path class="cls-1" d="M1138,95.65c.31,1.79,1.65,3.52,4,4.88a19.07,19.07,0,0,0,8.07,2.29L1106.7,128l-12.36-7.14,43.48-25.28Z"/><path class="cls-1" d="M1161.51,89.18c5.43,3.13,5.46,8.22.06,11.35a20.71,20.71,0,0,1-11.53,2.29,19.07,19.07,0,0,1-8.07-2.29c-2.37-1.36-3.71-3.09-4-4.88-.42-2.31.9-4.7,4-6.48C1147.3,86,1156.07,86,1161.51,89.18Zm-15.61,8.88a12.9,12.9,0,0,0,11.7,0c3.23-1.87,3.21-4.91,0-6.78a12.9,12.9,0,0,0-11.7,0c-3.22,1.87-3.21,4.91,0,6.78"/><polygon class="cls-1" points="1106.7 128.01 1099.56 139.22 1099.39 139.49 1087.12 132.4 1086.99 132.33 1094.34 120.87 1106.7 128.01"/><path class="cls-1" d="M1157.61,126.72c5.43,3.14,5.46,8.23.06,11.36a20.56,20.56,0,0,1-11.17,2.31,19.21,19.21,0,0,1-8.44-2.31c-2.27-1.31-3.59-3-4-4.67-.53-2.38.77-4.86,3.91-6.69C1143.4,123.59,1152.18,123.59,1157.61,126.72Zm-15.29,9.07a12.9,12.9,0,0,0,11.7,0c3.22-1.87,3.21-4.91,0-6.78a12.92,12.92,0,0,0-11.71,0c-3.22,1.88-3.2,4.91,0,6.78"/><path class="cls-1" d="M1003.42,150.54c5.44,3.13,5.46,8.22.07,11.35A20.64,20.64,0,0,1,992,164.18a19,19,0,0,1-8.08-2.29c-2.42-1.39-3.76-3.18-4-5-.34-2.27,1-4.61,4-6.35C989.21,147.4,998,147.4,1003.42,150.54ZM987.5,159.6a12.87,12.87,0,0,0,11.7,0c3.22-1.87,3.21-4.9,0-6.77a12.87,12.87,0,0,0-11.7,0c-3.22,1.87-3.21,4.9,0,6.77"/><polygon class="cls-1" points="1099.81 139.36 1012.82 189.92 1000.45 182.78 1087.12 132.4 1099.39 139.49 1099.56 139.22 1099.81 139.36"/><path class="cls-1" d="M1146.5,140.39l-106.73,62.17-12.37-7.14,106.69-62c.38,1.71,1.7,3.36,4,4.67A19.21,19.21,0,0,0,1146.5,140.39Z"/><path class="cls-1" d="M1252.61,115.85,1092,209.33l-12.37-7.14,160.59-93.33c.38,1.71,1.71,3.36,4,4.68A19.44,19.44,0,0,0,1252.61,115.85Z"/><polygon class="cls-1" points="974.04 212.08 986.1 219.41 766.09 347.26 753.72 340.12 974.04 212.08"/><polygon class="cls-1" points="1039.74 202.54 986.21 219.47 986.1 219.41 973.86 212.34 974.27 212.21 1027.4 195.42 1039.74 202.54"/><polygon class="cls-1" points="1091.96 209.32 1047.21 223.29 1034.86 216.16 1035.27 216.03 1079.61 202.19 1091.96 209.32"/><path class="cls-1" d="M777.45,229.3c5.43,3.14,5.46,8.22.06,11.36A20.56,20.56,0,0,1,766.34,243a19.4,19.4,0,0,1-8.43-2.31c-2.28-1.31-3.6-3-4-4.67-.53-2.38.77-4.86,3.91-6.69C763.24,226.17,772,226.17,777.45,229.3Zm-15.6,8.88a12.87,12.87,0,0,0,11.7,0c3.22-1.88,3.2-4.91,0-6.78a12.92,12.92,0,0,0-11.71,0c-3.21,1.87-3.19,4.9.05,6.77"/><polygon class="cls-1" points="1035.27 216.03 1034.86 216.16 1047.15 223.26 980.96 261.72 968.69 254.64 1035.1 215.93 1035.27 216.03"/><polygon class="cls-1" points="981.05 261.77 945.46 268.97 933.09 261.83 968.69 254.64 980.96 261.72 981.05 261.77"/><path class="cls-1" d="M766.34,243l-90,52.46-12.37-7.15,90-52.29c.38,1.7,1.7,3.36,4,4.67A19.4,19.4,0,0,0,766.34,243Z"/><polygon class="cls-1" points="1029.48 116.65 699.15 308.62 686.78 301.47 1017.11 109.51 1029.48 116.65"/><path class="cls-1" d="M979.84,156.89c.28,1.82,1.62,3.61,4,5a15.17,15.17,0,0,0,8.85,1.84L722.14,321,709,314.29Z"/><polygon class="cls-1" points="944.35 217.94 743.89 334.44 731.51 327.3 931.98 210.8 944.35 217.94"/><polygon class="cls-1" points="945.59 269.05 788.62 360.27 776.25 353.13 933.22 261.9 945.59 269.05"/></g><polygon class="cls-1" points="1072.4 32.98 1080.16 54.62 1067.84 47.51 1060.08 25.87 1060.28 25.98 1072.4 32.98"/><polygon class="cls-1" points="1102.28 15.91 1102.06 16.03 1072.65 33.12 1072.4 32.98 1060.28 25.98 1089.43 9.04 1089.9 8.76 1102.28 15.91"/><path class="cls-1" d="M1113,2.35c5.43,3.14,5.46,8.22.07,11.36a20.47,20.47,0,0,1-11,2.32l.22-.12L1089.9,8.76l-.47.28c-.53-2.38.77-4.86,3.92-6.69C1098.74-.78,1107.52-.78,1113,2.35Zm-15.28,9.07a12.9,12.9,0,0,0,11.7,0c3.22-1.87,3.2-4.91,0-6.78a12.9,12.9,0,0,0-11.7,0c-3.22,1.87-3.2,4.91,0,6.78"/><polygon class="cls-1" points="1080.04 54.55 1033.39 81.67 1021.31 74.69 1021.02 74.52 1067.67 47.41 1080.04 54.55"/><polygon class="cls-1" points="1033.39 81.67 1029.51 116.67 1017.22 109.57 1021.31 74.69 1033.39 81.67"/><g class="cls-7"><polygon class="cls-28" points="793.9 361.86 793.9 363.32 781.14 370.74 781.15 369.27 793.9 361.86"/><polygon class="cls-28" points="781.15 369.27 781.14 370.74 762.59 360.02 762.59 358.56 781.15 369.27"/><polygon class="cls-1" points="793.9 361.86 781.15 369.27 762.59 358.56 775.35 351.15 793.9 361.86"/></g><g class="cls-7"><polygon class="cls-28" points="771.39 348.55 771.38 350.01 758.63 357.42 758.64 355.96 771.39 348.55"/><polygon class="cls-28" points="758.64 355.96 758.63 357.42 740.08 346.7 740.08 345.25 758.64 355.96"/><polygon class="cls-1" points="771.39 348.55 758.64 355.96 740.08 345.25 752.83 337.83 771.39 348.55"/></g><g class="cls-7"><polygon class="cls-28" points="748.75 335.61 748.75 337.07 736 344.48 736 343.02 748.75 335.61"/><polygon class="cls-28" points="736 343.02 736 344.48 717.44 333.77 717.45 332.31 736 343.02"/><polygon class="cls-1" points="748.75 335.61 736 343.02 717.45 332.31 730.2 324.9 748.75 335.61"/></g><g class="cls-7"><polygon class="cls-28" points="726.24 322.29 726.24 323.75 713.49 331.16 713.49 329.7 726.24 322.29"/><polygon class="cls-28" points="713.49 329.7 713.49 331.16 694.93 320.45 694.93 318.99 713.49 329.7"/><polygon class="cls-1" points="726.24 322.29 713.49 329.7 694.93 318.99 707.69 311.58 726.24 322.29"/></g><g class="cls-7"><polygon class="cls-28" points="703.67 309.36 703.66 310.82 690.91 318.23 690.92 316.77 703.67 309.36"/><polygon class="cls-28" points="690.92 316.77 690.91 318.23 672.36 307.52 672.36 306.06 690.92 316.77"/><polygon class="cls-1" points="703.67 309.36 690.92 316.77 672.36 306.06 685.12 298.65 703.67 309.36"/></g><g class="cls-7"><polygon class="cls-28" points="681.16 296.05 681.15 297.51 668.4 304.92 668.4 303.46 681.16 296.05"/><polygon class="cls-28" points="668.4 303.46 668.4 304.92 649.85 294.2 649.85 292.74 668.4 303.46"/><polygon class="cls-1" points="681.16 296.05 668.4 303.46 649.85 292.74 662.6 285.33 681.16 296.05"/></g><g class="cls-7"><polygon class="cls-28" points="489.36 360.46 489.36 361.93 502.11 369.34 502.11 367.88 489.36 360.46"/><polygon class="cls-28" points="502.11 367.88 502.11 369.34 520.67 358.62 520.66 357.16 502.11 367.88"/><polygon class="cls-1" points="489.36 360.46 502.11 367.88 520.66 357.16 507.91 349.75 489.36 360.46"/></g><g class="cls-7"><polygon class="cls-28" points="511.87 347.15 511.88 348.61 524.63 356.02 524.62 354.56 511.87 347.15"/><polygon class="cls-28" points="524.62 354.56 524.63 356.02 543.18 345.31 543.18 343.85 524.62 354.56"/><polygon class="cls-1" points="511.87 347.15 524.62 354.56 543.18 343.85 530.42 336.44 511.87 347.15"/></g><g class="cls-7"><polygon class="cls-28" points="534.5 334.21 534.51 335.67 547.26 343.08 547.25 341.62 534.5 334.21"/><polygon class="cls-28" points="547.25 341.62 547.26 343.08 565.81 332.37 565.81 330.91 547.25 341.62"/><polygon class="cls-1" points="534.5 334.21 547.25 341.62 565.81 330.91 553.06 323.5 534.5 334.21"/></g><g class="cls-7"><polygon class="cls-28" points="557.02 320.89 557.02 322.35 569.77 329.76 569.77 328.3 557.02 320.89"/><polygon class="cls-28" points="569.77 328.3 569.77 329.76 588.33 319.05 588.32 317.59 569.77 328.3"/><polygon class="cls-1" points="557.02 320.89 569.77 328.3 588.32 317.59 575.57 310.18 557.02 320.89"/></g><g class="cls-7"><polygon class="cls-28" points="579.59 307.96 579.59 309.43 592.35 316.84 592.34 315.38 579.59 307.96"/><polygon class="cls-28" points="592.34 315.38 592.35 316.84 610.9 306.12 610.9 304.66 592.34 315.38"/><polygon class="cls-1" points="579.59 307.96 592.34 315.38 610.9 304.66 598.14 297.25 579.59 307.96"/></g><g class="cls-7"><polygon class="cls-28" points="602.1 294.65 602.11 296.11 614.86 303.52 614.85 302.06 602.1 294.65"/><polygon class="cls-28" points="614.85 302.06 614.86 303.52 633.41 292.81 633.41 291.35 614.85 302.06"/><polygon class="cls-1" points="602.1 294.65 614.85 302.06 633.41 291.35 620.66 283.94 602.1 294.65"/></g><g class="cls-7"><g class="cls-7"><g class="cls-29"><g class="cls-7"><path class="cls-30" d="M643.3,287l0,12.12a5.17,5.17,0,0,0-.71-.34l0-12.12a5,5,0,0,1,.7.34"/><path class="cls-31" d="M642.6,286.68l0,12.12a3.84,3.84,0,0,0-.6-.2l0-12.12a4.69,4.69,0,0,1,.6.2"/><path class="cls-32" d="M642,286.48l0,12.12-.51-.13,0-12.12.52.13"/><path class="cls-33" d="M641.48,286.35l0,12.12-.49-.08,0-12.13.49.09"/><path class="cls-34" d="M641,286.26l0,12.13-.48-.06,0-12.12.48.05"/><path class="cls-35" d="M640.51,286.21l0,12.12-.49,0,0-12.13.48,0"/><path class="cls-36" d="M640,286.18l0,12.13h-.5l0-12.12H640"/><path class="cls-37" d="M639.52,286.19l0,12.12c-.19,0-.37,0-.55,0l0-12.12.55,0"/><path class="cls-38" d="M639,286.22l0,12.12-.63.09,0-12.12q.31-.06.63-.09"/><path class="cls-39" d="M638.34,286.31l0,12.12a9,9,0,0,0-.93.23l0-12.12a9,9,0,0,1,.93-.23"/><path class="cls-40" d="M637.41,286.54l0,12.12a5.89,5.89,0,0,0-1.08.48l0-12.12a5.79,5.79,0,0,1,1.07-.48"/></g></g></g><polygon class="cls-3" points="778.53 365.09 778.49 377.21 643.27 299.14 643.3 287.02 778.53 365.09"/><polygon class="cls-41" points="636.34 287.02 636.3 299.14 501.96 377.21 501.99 365.09 636.34 287.02"/><g class="cls-7"><path class="cls-3" d="M780,367.12l0,12.12a2.48,2.48,0,0,0-1.46-2l0-12.12A2.46,2.46,0,0,1,780,367.12Z"/><g class="cls-42"><g class="cls-7"><path class="cls-3" d="M780,367.12l0,12.12a2.48,2.48,0,0,0-1.46-2l0-12.12a2.46,2.46,0,0,1,1.45,2"/></g></g></g><g class="cls-7"><path class="cls-3" d="M500.53,379.21l0-12.12a2.46,2.46,0,0,1,1.43-2l0,12.12A2.44,2.44,0,0,0,500.53,379.21Z"/><g class="cls-43"><g class="cls-7"><path class="cls-40" d="M502,365.09l0,12.12-.06,0,0-12.12.06,0"/><path class="cls-39" d="M501.93,365.12l0,12.12a4,4,0,0,0-.62.46l0-12.12a4.54,4.54,0,0,1,.62-.46"/><path class="cls-3" d="M501.31,365.58l0,12.12a3.13,3.13,0,0,0-.31.33l0-12.12a3,3,0,0,1,.3-.33"/><path class="cls-3" d="M501,365.91,501,378l-.2.3,0-12.12a1.74,1.74,0,0,1,.2-.3"/><path class="cls-3" d="M500.81,366.21l0,12.12a2.39,2.39,0,0,0-.13.28l0-12.12a1.43,1.43,0,0,1,.13-.28"/><path class="cls-3" d="M500.68,366.49l0,12.12a2.29,2.29,0,0,0-.08.28l0-12.13a1.38,1.38,0,0,1,.08-.27"/><path class="cls-3" d="M500.6,366.76l0,12.13a1.27,1.27,0,0,0,0,.28l0-12.12a2.89,2.89,0,0,1,0-.29"/><path class="cls-3" d="M500.56,367.05l0,12.12v0l0-12.12v0"/></g></g></g><g class="cls-7"><path class="cls-3" d="M780,379.23a2.44,2.44,0,0,1-1.43,2l0-12.12a2.42,2.42,0,0,0,1.43-2C780,370.74,779.94,375.59,780,379.23Z"/><g class="cls-44"><g class="cls-7"><path class="cls-3" d="M780,367.12l0,12.12v0l0-12.12v0"/><path class="cls-3" d="M780,367.16l0,12.12a1.43,1.43,0,0,1,0,.29l0-12.12a1.43,1.43,0,0,0,0-.29"/><path class="cls-3" d="M780,367.45l0,12.12a1.72,1.72,0,0,1-.08.28l0-12.12c0-.1.06-.19.08-.28"/><path class="cls-3" d="M779.87,367.73l0,12.12a2.28,2.28,0,0,1-.13.28l0-12.12.13-.28"/><path class="cls-3" d="M779.74,368l0,12.12a2.51,2.51,0,0,1-.2.29l0-12.12c.07-.1.14-.19.2-.29"/><path class="cls-3" d="M779.54,368.3l0,12.12q-.13.16-.3.33l0-12.12a3.13,3.13,0,0,0,.31-.33"/><path class="cls-3" d="M779.23,368.63l0,12.12a4.34,4.34,0,0,1-.62.46l0-12.12a4,4,0,0,0,.62-.46"/><path class="cls-3" d="M778.61,369.09l0,12.12-.06,0,0-12.12.06,0"/></g></g></g><g class="cls-7"><path class="cls-3" d="M502,381.25a2.48,2.48,0,0,1-1.45-2l0-12.12a2.46,2.46,0,0,0,1.46,2C502,372.76,502,377.61,502,381.25Z"/><g class="cls-45"><g class="cls-7"><path class="cls-3" d="M502,369.12l0,12.13a2.47,2.47,0,0,1-1.45-2l0-12.12a2.47,2.47,0,0,0,1.46,2"/></g></g></g><g class="cls-7"><path class="cls-3" d="M783.74,367.13l0,12.12c0,1.28-.85,2.56-2.53,3.53l0-12.12C782.9,369.69,783.74,368.41,783.74,367.13Z"/><g class="cls-46"><g class="cls-7"><path class="cls-3" d="M783.74,367.13l0,12.12a.22.22,0,0,1,0,.08l0-12.12v-.08"/><path class="cls-3" d="M783.74,367.21l0,12.12a2.92,2.92,0,0,1-.05.5l0-12.12a4.53,4.53,0,0,0,.06-.5"/><path class="cls-3" d="M783.68,367.71l0,12.12c0,.16-.08.32-.14.49l0-12.12a3.32,3.32,0,0,0,.14-.49"/><path class="cls-3" d="M783.54,368.2l0,12.12a3.69,3.69,0,0,1-.24.49l0-12.12a3.6,3.6,0,0,0,.23-.49"/><path class="cls-3" d="M783.31,368.69l0,12.12a3.31,3.31,0,0,1-.34.52l0-12.12a4.3,4.3,0,0,0,.35-.52"/><path class="cls-3" d="M783,369.21l0,12.12a5.81,5.81,0,0,1-.54.58l0-12.12a5.81,5.81,0,0,0,.54-.58"/><path class="cls-3" d="M782.42,369.79l0,12.12a6.39,6.39,0,0,1-1.1.81l0-12.12a6.39,6.39,0,0,0,1.1-.81"/><path class="cls-3" d="M781.32,370.6l0,12.12-.11.06,0-12.12.1-.06"/></g></g></g><g class="cls-7"><path class="cls-3" d="M496.77,379.2l0-12.12c0,1.3.85,2.6,2.56,3.59l0,12.12C497.62,381.8,496.77,380.5,496.77,379.2Z"/><g class="cls-47"><path class="cls-3" d="M499.36,370.67l0,12.12c-1.71-1-2.56-2.29-2.56-3.59l0-12.12c0,1.3.85,2.6,2.56,3.59"/></g></g><polygon class="cls-3" points="778.55 369.12 778.52 381.25 644.17 459.32 644.21 447.2 778.55 369.12"/><polygon class="cls-3" points="637.24 447.2 637.2 459.32 501.98 381.25 502.02 369.13 637.24 447.2"/><g class="cls-7"><path class="cls-3" d="M644.21,447.2l0,12.12a7.71,7.71,0,0,1-7,0l0-12.12A7.71,7.71,0,0,0,644.21,447.2Z"/><g class="cls-48"><g class="cls-7"><path class="cls-3" d="M644.21,447.2l0,12.12a5.42,5.42,0,0,1-1.07.47l0-12.12a5.87,5.87,0,0,0,1.08-.47"/><path class="cls-3" d="M643.13,447.67l0,12.12a7.17,7.17,0,0,1-.94.23l0-12.12a7,7,0,0,0,.93-.23"/><path class="cls-3" d="M642.2,447.9l0,12.12a6,6,0,0,1-.63.09l0-12.12.63-.09"/><path class="cls-3" d="M641.57,448l0,12.12-.54,0L641,448l.55,0"/><path class="cls-3" d="M641,448l0,12.12h-.51l0-12.12H641"/><path class="cls-3" d="M640.51,448l0,12.12c-.16,0-.33,0-.49,0L640,448l.48,0"/><path class="cls-3" d="M640,448l0,12.12-.48-.05,0-12.12.48.05"/><path class="cls-3" d="M639.55,448l0,12.12A4.21,4.21,0,0,1,639,460l0-12.12c.16,0,.32.06.49.09"/><path class="cls-3" d="M639.06,447.86,639,460l-.51-.12,0-12.12c.17,0,.34.09.52.12"/><path class="cls-3" d="M638.54,447.74l0,12.12-.6-.2,0-12.12.59.2"/><path class="cls-3" d="M638,447.54l0,12.12a7.75,7.75,0,0,1-.71-.34l0-12.12a6.67,6.67,0,0,0,.71.34"/></g></g></g><path class="cls-49" d="M781.18,363.55c3.4,2,3.41,5.15,0,7.11L646.87,448.74a13.56,13.56,0,0,1-12.28,0L499.36,370.67c-3.39-2-3.41-5.16,0-7.12l134.35-78.08a13.55,13.55,0,0,1,12.29,0Zm-137,83.65,134.34-78.08c1.92-1.11,1.9-2.92,0-4L643.3,287a7.63,7.63,0,0,0-7,0L502,365.09c-1.91,1.11-1.9,2.92,0,4l135.22,78.07a7.68,7.68,0,0,0,7,0"/><path class="cls-50" d="M778.53,365.09c1.92,1.11,1.94,2.92,0,4L644.21,447.2a7.71,7.71,0,0,1-7,0L502,369.12c-1.93-1.11-1.94-2.92,0-4L636.34,287a7.63,7.63,0,0,1,7,0Z"/><polygon class="cls-3" points="781.22 370.66 781.18 382.78 646.84 460.86 646.87 448.74 781.22 370.66"/><polygon class="cls-3" points="634.59 448.74 634.55 460.86 499.33 382.79 499.37 370.67 634.59 448.74"/><g class="cls-7"><path class="cls-3" d="M646.87,448.74l0,12.12a13.58,13.58,0,0,1-12.29,0l0-12.12A13.56,13.56,0,0,0,646.87,448.74Z"/><g class="cls-51"><g class="cls-7"><path class="cls-3" d="M646.87,448.74l0,12.12a10.2,10.2,0,0,1-1.9.83l0-12.12a9.82,9.82,0,0,0,1.89-.83"/><path class="cls-3" d="M645,449.57l0,12.12a12.68,12.68,0,0,1-1.64.41l0-12.12a12.43,12.43,0,0,0,1.65-.41"/><path class="cls-3" d="M643.33,450l0,12.12c-.37.07-.74.12-1.11.16l0-12.13a9.89,9.89,0,0,0,1.11-.15"/><path class="cls-3" d="M642.22,450.13l0,12.13c-.32,0-.65.05-1,.06l0-12.12c.32,0,.64,0,1-.07"/><path class="cls-3" d="M641.26,450.2l0,12.12h-.89l0-12.12h.9"/><path class="cls-3" d="M640.36,450.2l0,12.12c-.29,0-.57,0-.86,0l0-12.12c.28,0,.57,0,.85,0"/><path class="cls-3" d="M639.51,450.16l0,12.12-.85-.1,0-12.12.85.1"/><path class="cls-3" d="M638.66,450.06l0,12.12c-.29,0-.57-.09-.86-.15l0-12.12c.28.06.57.11.86.15"/><path class="cls-3" d="M637.8,449.91l0,12.12a8.45,8.45,0,0,1-.9-.22l0-12.12c.3.08.6.16.91.22"/><path class="cls-3" d="M636.89,449.69l0,12.12a11,11,0,0,1-1.06-.35l0-12.13a9.27,9.27,0,0,0,1,.36"/><path class="cls-3" d="M635.84,449.33l0,12.13a11.12,11.12,0,0,1-1.25-.6l0-12.12a9.58,9.58,0,0,0,1.25.59"/></g></g></g></g><g class="cls-7"><g class="cls-7"><g class="cls-52"><g class="cls-7"><path class="cls-53" d="M691.14,362.8v0"/><path class="cls-54" d="M691.14,362.9v1.46a4.62,4.62,0,0,1-.08.65v-1.46a3.5,3.5,0,0,0,.08-.65"/><path class="cls-54" d="M691.06,363.55V365a3.69,3.69,0,0,1-.18.65V364.2a3.69,3.69,0,0,0,.18-.65"/><path class="cls-54" d="M690.88,364.2v1.46a5.51,5.51,0,0,1-.31.65v-1.46a3.51,3.51,0,0,0,.31-.65"/><path class="cls-54" d="M690.57,364.85v1.46a5.51,5.51,0,0,1-.46.69v-1.46a5.51,5.51,0,0,0,.46-.69"/><path class="cls-54" d="M690.11,365.54V367a7.12,7.12,0,0,1-.71.76V366.3a6.22,6.22,0,0,0,.71-.76"/><path class="cls-54" d="M689.4,366.3v1.46a9.43,9.43,0,0,1-1.45,1.08v-1.46a9,9,0,0,0,1.45-1.08"/><path class="cls-54" d="M688,367.38v1.46l-.14.08v-1.46l.14-.08"/></g></g></g><g class="cls-7"><g class="cls-55"><path class="cls-54" d="M592,367.46v1.46c-2.26-1.31-3.39-3-3.39-4.73v-1.46c0,1.71,1.12,3.42,3.38,4.73"/></g></g><polygon class="cls-54" points="687.81 367.46 687.81 368.92 648.16 391.96 648.16 390.5 687.81 367.46"/><polygon class="cls-54" points="631.95 390.5 631.95 391.96 592.04 368.92 592.04 367.46 631.95 390.5"/><g class="cls-7"><g class="cls-56"><path class="cls-54" d="M648.16,390.5V392a13.24,13.24,0,0,1-2.51,1.1V391.6a13,13,0,0,0,2.51-1.1"/><path class="cls-54" d="M645.65,391.6v1.46a15.64,15.64,0,0,1-2.17.54v-1.46a15,15,0,0,0,2.17-.54"/><path class="cls-54" d="M643.48,392.14v1.46q-.72.13-1.47.21v-1.46c.49-.05,1-.12,1.46-.21"/><path class="cls-54" d="M642,392.35v1.46c-.42,0-.84.07-1.27.08v-1.46c.42,0,.85,0,1.27-.08"/><path class="cls-54" d="M640.75,392.43v1.46c-.39,0-.78,0-1.17,0v-1.46c.39,0,.79,0,1.18,0"/><path class="cls-54" d="M639.57,392.44v1.46c-.38,0-.76,0-1.13-.06v-1.46c.38,0,.75.05,1.13.06"/><path class="cls-54" d="M638.44,392.38v1.46c-.38,0-.75-.07-1.12-.13v-1.46c.37.06.74.1,1.11.13"/><path class="cls-54" d="M637.33,392.25v1.46c-.38,0-.76-.12-1.13-.19v-1.46c.37.07.75.14,1.14.19"/><path class="cls-54" d="M636.19,392.06v1.46q-.62-.13-1.2-.3v-1.46q.6.17,1.2.3"/><path class="cls-54" d="M635,391.76v1.46a12.61,12.61,0,0,1-1.39-.47v-1.46a13.36,13.36,0,0,0,1.39.47"/><path class="cls-54" d="M633.6,391.29v1.46a12.67,12.67,0,0,1-1.66-.79V390.5a12.54,12.54,0,0,0,1.65.79"/></g></g><path class="cls-57" d="M687.76,358.07c4.49,2.59,4.51,6.8,0,9.39l-39.65,23c-4.46,2.59-11.72,2.59-16.21,0l-39.91-23c-4.49-2.59-4.51-6.8,0-9.39l39.65-23c4.46-2.6,11.72-2.6,16.21,0Z"/></g><g class="cls-7"><polygon class="cls-28" points="632.62 454.08 632.62 455.54 619.87 462.95 619.87 461.49 632.62 454.08"/><polygon class="cls-58" points="619.87 461.49 619.87 462.95 601.31 452.24 601.31 450.78 619.87 461.49"/><polygon class="cls-1" points="632.62 454.08 619.87 461.49 601.31 450.78 614.07 443.37 632.62 454.08"/></g><g class="cls-7"><polygon class="cls-28" points="623.3 459.44 623.28 465.28 619.87 467.26 619.89 461.42 623.3 459.44"/><polygon class="cls-28" points="619.89 461.42 619.87 467.26 601.32 456.55 601.33 450.71 619.89 461.42"/><polygon class="cls-1" points="623.3 459.44 619.89 461.42 601.33 450.71 604.74 448.73 623.3 459.44"/></g><g class="cls-7"><polygon class="cls-28" points="619.9 465.9 619.9 467.36 607.15 474.77 607.15 473.31 619.9 465.9"/><polygon class="cls-28" points="607.15 473.31 607.15 474.77 588.59 464.06 588.6 462.6 607.15 473.31"/><polygon class="cls-1" points="619.9 465.9 607.15 473.31 588.6 462.6 601.35 455.19 619.9 465.9"/></g><g class="cls-7"><polygon class="cls-28" points="610.11 440.76 610.11 442.22 597.35 449.63 597.36 448.17 610.11 440.76"/><polygon class="cls-58" points="597.36 448.17 597.35 449.63 578.8 438.92 578.8 437.46 597.36 448.17"/><polygon class="cls-1" points="610.11 440.76 597.36 448.17 578.8 437.46 591.55 430.05 610.11 440.76"/></g><g class="cls-7"><polygon class="cls-28" points="600.79 446.12 600.77 451.96 597.36 453.95 597.38 448.1 600.79 446.12"/><polygon class="cls-28" points="597.38 448.1 597.36 453.95 578.8 443.23 578.82 437.39 597.38 448.1"/><polygon class="cls-1" points="600.79 446.12 597.38 448.1 578.82 437.39 582.23 435.41 600.79 446.12"/></g><g class="cls-7"><polygon class="cls-28" points="597.39 452.58 597.38 454.05 584.63 461.46 584.64 460 597.39 452.58"/><polygon class="cls-28" points="584.64 460 584.63 461.46 566.08 450.74 566.08 449.28 584.64 460"/><polygon class="cls-1" points="597.39 452.58 584.64 460 566.08 449.28 578.84 441.87 597.39 452.58"/></g><g class="cls-7"><polygon class="cls-28" points="587.48 427.82 587.47 429.28 574.72 436.69 574.72 435.23 587.48 427.82"/><polygon class="cls-58" points="574.72 435.23 574.72 436.69 556.16 425.98 556.17 424.52 574.72 435.23"/><polygon class="cls-1" points="587.48 427.82 574.72 435.23 556.17 424.52 568.92 417.11 587.48 427.82"/></g><g class="cls-7"><polygon class="cls-28" points="578.15 433.19 578.14 439.03 574.73 441.01 574.74 435.17 578.15 433.19"/><polygon class="cls-28" points="574.74 435.17 574.73 441.01 556.17 430.3 556.19 424.45 574.74 435.17"/><polygon class="cls-1" points="578.15 433.19 574.74 435.17 556.19 424.45 559.6 422.47 578.15 433.19"/></g><g class="cls-7"><polygon class="cls-28" points="574.76 439.65 574.75 441.11 562 448.52 562 447.06 574.76 439.65"/><polygon class="cls-28" points="562 447.06 562 448.52 543.45 437.81 543.45 436.34 562 447.06"/><polygon class="cls-1" points="574.76 439.65 562 447.06 543.45 436.34 556.2 428.93 574.76 439.65"/></g><g class="cls-7"><polygon class="cls-28" points="564.96 414.51 564.96 415.97 552.21 423.38 552.21 421.92 564.96 414.51"/><polygon class="cls-58" points="552.21 421.92 552.21 423.38 533.65 412.67 533.66 411.2 552.21 421.92"/><polygon class="cls-1" points="564.96 414.51 552.21 421.92 533.66 411.2 546.41 403.79 564.96 414.51"/></g><g class="cls-7"><polygon class="cls-28" points="555.64 419.87 555.62 425.71 552.22 427.69 552.23 421.85 555.64 419.87"/><polygon class="cls-28" points="552.23 421.85 552.22 427.69 533.66 416.98 533.68 411.14 552.23 421.85"/><polygon class="cls-1" points="555.64 419.87 552.23 421.85 533.68 411.14 537.09 409.15 555.64 419.87"/></g><g class="cls-7"><polygon class="cls-28" points="552.24 426.33 552.24 427.79 539.49 435.2 539.49 433.74 552.24 426.33"/><polygon class="cls-28" points="539.49 433.74 539.49 435.2 520.93 424.49 520.94 423.03 539.49 433.74"/><polygon class="cls-1" points="552.24 426.33 539.49 433.74 520.94 423.03 533.69 415.62 552.24 426.33"/></g><g class="cls-7"><polygon class="cls-28" points="542.39 401.58 542.39 403.04 529.63 410.45 529.64 408.99 542.39 401.58"/><polygon class="cls-58" points="529.64 408.99 529.63 410.45 511.08 399.74 511.08 398.28 529.64 408.99"/><polygon class="cls-1" points="542.39 401.58 529.64 408.99 511.08 398.28 523.84 390.87 542.39 401.58"/></g><g class="cls-7"><polygon class="cls-28" points="533.07 406.94 533.05 412.78 529.64 414.76 529.66 408.92 533.07 406.94"/><polygon class="cls-28" points="529.66 408.92 529.64 414.76 511.09 404.05 511.1 398.21 529.66 408.92"/><polygon class="cls-1" points="533.07 406.94 529.66 408.92 511.1 398.21 514.51 396.23 533.07 406.94"/></g><g class="cls-7"><polygon class="cls-28" points="529.67 413.4 529.67 414.86 516.91 422.27 516.92 420.81 529.67 413.4"/><polygon class="cls-28" points="516.92 420.81 516.91 422.27 498.36 411.56 498.36 410.1 516.92 420.81"/><polygon class="cls-1" points="529.67 413.4 516.92 420.81 498.36 410.1 511.12 402.69 529.67 413.4"/></g><g class="cls-7"><polygon class="cls-28" points="519.88 388.26 519.87 389.72 507.12 397.13 507.13 395.67 519.88 388.26"/><polygon class="cls-58" points="507.13 395.67 507.12 397.13 488.57 386.42 488.57 384.96 507.13 395.67"/><polygon class="cls-1" points="519.88 388.26 507.13 395.67 488.57 384.96 501.32 377.55 519.88 388.26"/></g><g class="cls-7"><polygon class="cls-28" points="510.55 393.62 510.54 399.46 507.13 401.44 507.14 395.6 510.55 393.62"/><polygon class="cls-28" points="507.14 395.6 507.13 401.44 488.57 390.73 488.59 384.89 507.14 395.6"/><polygon class="cls-1" points="510.55 393.62 507.14 395.6 488.59 384.89 492 382.91 510.55 393.62"/></g><g class="cls-7"><polygon class="cls-28" points="507.16 400.08 507.15 401.54 494.4 408.95 494.41 407.5 507.16 400.08"/><polygon class="cls-28" points="494.41 407.5 494.4 408.95 475.85 398.24 475.85 396.78 494.41 407.5"/><polygon class="cls-1" points="507.16 400.08 494.41 407.5 475.85 396.78 488.6 389.37 507.16 400.08"/></g><g class="cls-7"><polygon class="cls-28" points="650.19 453.22 650.19 454.68 662.95 462.09 662.94 460.63 650.19 453.22"/><polygon class="cls-58" points="662.94 460.63 662.95 462.09 681.5 451.38 681.5 449.92 662.94 460.63"/><polygon class="cls-1" points="650.19 453.22 662.94 460.63 681.5 449.92 668.74 442.5 650.19 453.22"/></g><g class="cls-7"><polygon class="cls-28" points="659.51 458.58 659.53 464.42 662.94 466.4 662.92 460.56 659.51 458.58"/><polygon class="cls-28" points="662.92 460.56 662.94 466.4 681.49 455.69 681.48 449.85 662.92 460.56"/><polygon class="cls-1" points="659.51 458.58 662.92 460.56 681.48 449.85 678.07 447.87 659.51 458.58"/></g><g class="cls-7"><polygon class="cls-28" points="662.91 465.04 662.91 466.5 675.66 473.91 675.66 472.45 662.91 465.04"/><polygon class="cls-28" points="675.66 472.45 675.66 473.91 694.22 463.2 694.22 461.74 675.66 472.45"/><polygon class="cls-1" points="662.91 465.04 675.66 472.45 694.22 461.74 681.46 454.33 662.91 465.04"/></g><g class="cls-7"><polygon class="cls-28" points="672.7 439.9 672.71 441.36 685.46 448.77 685.45 447.31 672.7 439.9"/><polygon class="cls-58" points="685.45 447.31 685.46 448.77 704.01 438.06 704.01 436.6 685.45 447.31"/><polygon class="cls-1" points="672.7 439.9 685.45 447.31 704.01 436.6 691.26 429.19 672.7 439.9"/></g><g class="cls-7"><polygon class="cls-28" points="682.02 445.26 682.04 451.1 685.45 453.08 685.43 447.24 682.02 445.26"/><polygon class="cls-28" points="685.43 447.24 685.45 453.08 704 442.37 703.99 436.53 685.43 447.24"/><polygon class="cls-1" points="682.02 445.26 685.43 447.24 703.99 436.53 700.58 434.55 682.02 445.26"/></g><g class="cls-7"><polygon class="cls-28" points="685.42 451.72 685.42 453.18 698.18 460.6 698.17 459.13 685.42 451.72"/><polygon class="cls-28" points="698.17 459.13 698.18 460.6 716.73 449.88 716.73 448.42 698.17 459.13"/><polygon class="cls-1" points="685.42 451.72 698.17 459.13 716.73 448.42 703.98 441.01 685.42 451.72"/></g><g class="cls-7"><polygon class="cls-28" points="695.33 426.96 695.34 428.42 708.09 435.83 708.09 434.37 695.33 426.96"/><polygon class="cls-58" points="708.09 434.37 708.09 435.83 726.64 425.12 726.64 423.66 708.09 434.37"/><polygon class="cls-1" points="695.33 426.96 708.09 434.37 726.64 423.66 713.89 416.25 695.33 426.96"/></g><g class="cls-7"><polygon class="cls-28" points="704.66 432.32 704.67 438.17 708.08 440.15 708.07 434.31 704.66 432.32"/><polygon class="cls-28" points="708.07 434.31 708.08 440.15 726.64 429.43 726.62 423.59 708.07 434.31"/><polygon class="cls-1" points="704.66 432.32 708.07 434.31 726.62 423.59 723.21 421.61 704.66 432.32"/></g><g class="cls-7"><polygon class="cls-28" points="708.05 438.79 708.06 440.25 720.81 447.66 720.81 446.2 708.05 438.79"/><polygon class="cls-28" points="720.81 446.2 720.81 447.66 739.37 436.94 739.36 435.48 720.81 446.2"/><polygon class="cls-1" points="708.05 438.79 720.81 446.2 739.36 435.48 726.61 428.07 708.05 438.79"/></g><g class="cls-7"><polygon class="cls-28" points="717.85 413.64 717.85 415.11 730.6 422.52 730.6 421.06 717.85 413.64"/><polygon class="cls-58" points="730.6 421.06 730.6 422.52 749.16 411.8 749.15 410.34 730.6 421.06"/><polygon class="cls-1" points="717.85 413.64 730.6 421.06 749.15 410.34 736.4 402.93 717.85 413.64"/></g><g class="cls-7"><polygon class="cls-28" points="727.17 419.01 727.19 424.85 730.6 426.83 730.58 420.99 727.17 419.01"/><polygon class="cls-28" points="730.58 420.99 730.6 426.83 749.15 416.12 749.13 410.28 730.58 420.99"/><polygon class="cls-1" points="727.17 419.01 730.58 420.99 749.13 410.28 745.73 408.29 727.17 419.01"/></g><g class="cls-7"><polygon class="cls-28" points="730.57 425.47 730.57 426.93 743.32 434.34 743.32 432.88 730.57 425.47"/><polygon class="cls-28" points="743.32 432.88 743.32 434.34 761.88 423.63 761.87 422.17 743.32 432.88"/><polygon class="cls-1" points="730.57 425.47 743.32 432.88 761.87 422.17 749.12 414.76 730.57 425.47"/></g><g class="cls-7"><polygon class="cls-28" points="740.42 400.72 740.42 402.18 753.18 409.59 753.17 408.13 740.42 400.72"/><polygon class="cls-58" points="753.17 408.13 753.18 409.59 771.73 398.88 771.73 397.42 753.17 408.13"/><polygon class="cls-1" points="740.42 400.72 753.17 408.13 771.73 397.42 758.98 390 740.42 400.72"/></g><g class="cls-7"><polygon class="cls-28" points="749.74 406.08 749.76 411.92 753.17 413.9 753.15 408.06 749.74 406.08"/><polygon class="cls-28" points="753.15 408.06 753.17 413.9 771.72 403.19 771.71 397.35 753.15 408.06"/><polygon class="cls-1" points="749.74 406.08 753.15 408.06 771.71 397.35 768.3 395.37 749.74 406.08"/></g><g class="cls-7"><polygon class="cls-28" points="753.14 412.54 753.14 414 765.9 421.41 765.89 419.95 753.14 412.54"/><polygon class="cls-28" points="765.89 419.95 765.9 421.41 784.45 410.7 784.45 409.24 765.89 419.95"/><polygon class="cls-1" points="753.14 412.54 765.89 419.95 784.45 409.24 771.69 401.83 753.14 412.54"/></g><g class="cls-7"><polygon class="cls-28" points="762.93 387.4 762.94 388.86 775.69 396.27 775.68 394.81 762.93 387.4"/><polygon class="cls-58" points="775.68 394.81 775.69 396.27 794.24 385.56 794.24 384.1 775.68 394.81"/><polygon class="cls-1" points="762.93 387.4 775.68 394.81 794.24 384.1 781.49 376.69 762.93 387.4"/></g><g class="cls-7"><polygon class="cls-28" points="772.26 392.76 772.27 398.6 775.68 400.58 775.66 394.74 772.26 392.76"/><polygon class="cls-28" points="775.66 394.74 775.68 400.58 794.24 389.87 794.22 384.03 775.66 394.74"/><polygon class="cls-1" points="772.26 392.76 775.66 394.74 794.22 384.03 790.81 382.05 772.26 392.76"/></g><g class="cls-7"><polygon class="cls-28" points="775.65 399.22 775.66 400.68 788.41 408.09 788.4 406.63 775.65 399.22"/><polygon class="cls-28" points="788.4 406.63 788.41 408.09 806.96 397.38 806.96 395.92 788.4 406.63"/><polygon class="cls-1" points="775.65 399.22 788.4 406.63 806.96 395.92 794.21 388.51 775.65 399.22"/></g><g class="cls-59"><path class="cls-60" d="M769.91,307.75c4.56,2,4.57,5.16,1.18,7.13l-37.47,21.78,14,8-122.06,71a13.58,13.58,0,0,1-12.32,0L510.55,357l-6.09,3.59-4.19-2.3c-3.42-2-3.44-5.17,0-7.14l164.93-95.77c3.39-2,8.91-2,11.19,0l80.9,45.36,1-.63,10.32,5.77-1.25.77Z"/></g><g class="cls-7"><g class="cls-7"><g class="cls-61"><g class="cls-7"><path class="cls-62" d="M786.55,263.23v0"/><path class="cls-63" d="M786.55,263.31V268a2.22,2.22,0,0,1-.06.51l0-4.67a2.83,2.83,0,0,0,0-.5"/><path class="cls-64" d="M786.5,263.81l0,4.67a3.32,3.32,0,0,1-.14.49l0-4.67a4.5,4.5,0,0,0,.14-.49"/><path class="cls-65" d="M786.36,264.3l0,4.67a3.6,3.6,0,0,1-.23.49V264.8a3.8,3.8,0,0,0,.24-.5"/><path class="cls-66" d="M786.12,264.8v4.66a4.3,4.3,0,0,1-.35.52v-4.66a4,4,0,0,0,.35-.52"/><path class="cls-67" d="M785.77,265.32V270a4.89,4.89,0,0,1-.54.58V265.9a4.13,4.13,0,0,0,.54-.58"/><path class="cls-68" d="M785.23,265.9v4.66a6.43,6.43,0,0,1-1.1.82v-4.67a6.39,6.39,0,0,0,1.1-.81"/><path class="cls-69" d="M784.13,266.71v4.67l-.11.06v-4.66l.11-.07"/></g></g></g><g class="cls-7"><g class="cls-70"><g class="cls-7"><path class="cls-71" d="M504.6,299.12v4.67c-1.72-1-2.58-2.3-2.58-3.6v-4.67c0,1.3.86,2.61,2.58,3.6"/></g></g></g><polygon class="cls-72" points="784.02 266.78 784.01 271.44 624.46 364.17 624.47 359.5 784.02 266.78"/><polygon class="cls-73" points="612.14 359.5 612.13 364.17 504.59 303.79 504.6 299.12 612.14 359.5"/><g class="cls-7"><g class="cls-74"><g class="cls-7"><path class="cls-69" d="M624.47,359.5v4.67a10.3,10.3,0,0,1-1.91.83v-4.66a9.44,9.44,0,0,0,1.91-.84"/><path class="cls-68" d="M622.56,360.34V365a11.05,11.05,0,0,1-1.65.41v-4.66a12.43,12.43,0,0,0,1.65-.41"/><path class="cls-67" d="M620.91,360.75v4.66c-.37.07-.74.12-1.11.16V360.9a10.21,10.21,0,0,0,1.11-.15"/><path class="cls-66" d="M619.8,360.9v4.67c-.32,0-.65.05-1,.06V361c.33,0,.65,0,1-.07"/><path class="cls-65" d="M618.83,361v4.66c-.3,0-.6,0-.89,0V361h.89"/><path class="cls-64" d="M617.94,361v4.67c-.29,0-.58,0-.86-.05v-4.66c.28,0,.57,0,.86,0"/><path class="cls-63" d="M617.08,360.93v4.66c-.29,0-.57,0-.85-.09v-4.67l.85.1"/><path class="cls-62" d="M616.23,360.83v4.67l-.87-.15,0-4.67c.28.06.57.11.86.15"/><path class="cls-75" d="M615.37,360.68l0,4.67c-.3-.07-.61-.14-.91-.23l0-4.66c.29.08.6.16.91.22"/><path class="cls-76" d="M614.46,360.46l0,4.66c-.36-.1-.71-.22-1.05-.35V360.1a8.8,8.8,0,0,0,1.06.36"/><path class="cls-71" d="M613.4,360.1v4.67a10.49,10.49,0,0,1-1.26-.6V359.5a9.11,9.11,0,0,0,1.26.6"/></g></g></g><path class="cls-77" d="M782.84,259.64c4.56,2,4.57,5.17,1.18,7.14L624.47,359.5a13.6,13.6,0,0,1-12.33,0L504.6,299.12c-3.42-2-3.44-5.17-.05-7.14l159.56-92.73c3.39-2,8.91-2,11.18,0Z"/></g><g class="cls-7"><g class="cls-7"><g class="cls-78"><g class="cls-7"><path class="cls-79" d="M663.33,64.46l-2.42-1.41a7,7,0,0,1,.73-.36l2.42,1.41a7,7,0,0,0-.73.36"/><path class="cls-80" d="M664.06,64.1l-2.42-1.41.6-.21,2.43,1.41a3.67,3.67,0,0,0-.61.21"/><path class="cls-81" d="M664.67,63.89l-2.43-1.41.46-.09,2.42,1.4-.45.1"/><path class="cls-82" d="M665.12,63.79l-2.42-1.4a2.58,2.58,0,0,1,.39,0l2.42,1.4-.39,0"/><path class="cls-69" d="M665.51,63.75l-2.42-1.4h.34l2.42,1.41h-.34"/><path class="cls-68" d="M665.85,63.76l-2.42-1.41.31,0,2.42,1.4a3,3,0,0,0-.31,0"/><path class="cls-67" d="M666.16,63.79l-2.42-1.4c.1,0,.2,0,.3.06l2.42,1.41-.3-.07"/><path class="cls-66" d="M666.46,63.86,664,62.45l.27.1L666.73,64l-.27-.1"/><path class="cls-65" d="M666.73,64l-2.42-1.41.26.13,2.42,1.4a2.06,2.06,0,0,0-.26-.12"/><path class="cls-64" d="M667,64.08l-2.42-1.4h0L667,64.1l0,0"/></g></g></g><g class="cls-7"><g class="cls-83"><g class="cls-7"><path class="cls-71" d="M501.48,293.53l-2.42-1.4a3.64,3.64,0,0,1-1.51-3.33l2.42,1.41a3.64,3.64,0,0,0,1.51,3.32"/></g></g></g><polygon class="cls-84" points="499.97 290.21 497.55 288.8 497.2 163.54 499.62 164.94 499.97 290.21"/><polygon class="cls-85" points="504.78 156 502.36 154.59 660.91 63.05 663.33 64.46 504.78 156"/><g class="cls-7"><g class="cls-86"><g class="cls-7"><path class="cls-71" d="M499.62,164.94l-2.42-1.4a8.68,8.68,0,0,1,.06-1l2.42,1.4a8.81,8.81,0,0,0-.06,1"/><path class="cls-76" d="M499.68,163.93l-2.42-1.4c0-.24.08-.48.13-.72l2.42,1.41c-.05.24-.1.48-.13.71"/><path class="cls-75" d="M499.81,163.22l-2.42-1.41c0-.2.09-.4.14-.59l2.42,1.4c-.05.2-.1.4-.14.6"/><path class="cls-62" d="M500,162.62l-2.42-1.4c.05-.18.11-.36.16-.53l2.42,1.4c-.05.18-.11.36-.16.53"/><path class="cls-63" d="M500.11,162.09l-2.42-1.4.18-.49,2.42,1.4-.18.49"/><path class="cls-64" d="M500.29,161.6l-2.42-1.4c.06-.16.12-.31.19-.47l2.42,1.41c-.07.15-.13.31-.19.46"/><path class="cls-65" d="M500.48,161.14l-2.42-1.41c.07-.15.13-.3.21-.45l2.42,1.41c-.08.15-.14.3-.21.45"/><path class="cls-66" d="M500.69,160.69l-2.42-1.41c.07-.15.14-.29.22-.44l2.42,1.41c-.08.14-.15.29-.22.44"/><path class="cls-67" d="M500.91,160.25l-2.42-1.41.24-.44,2.42,1.41-.24.44"/><path class="cls-68" d="M501.15,159.81l-2.42-1.41L499,158l2.42,1.41-.27.44"/><path class="cls-69" d="M501.42,159.37,499,158l.3-.45,2.42,1.41-.3.45"/><path class="cls-82" d="M501.72,158.92l-2.42-1.41c.11-.16.23-.31.35-.46l2.42,1.4c-.12.15-.23.31-.35.47"/><path class="cls-81" d="M502.07,158.45l-2.42-1.4c.13-.18.28-.35.42-.52l2.42,1.41-.42.51"/><path class="cls-80" d="M502.49,157.94l-2.42-1.41a8.08,8.08,0,0,1,.57-.6l2.42,1.41a8.08,8.08,0,0,0-.57.6"/><path class="cls-79" d="M503.06,157.34l-2.42-1.41a8.89,8.89,0,0,1,1.72-1.34l2.42,1.41a8.52,8.52,0,0,0-1.72,1.34"/></g></g></g><path class="cls-72" d="M663.33,64.46c2.86-1.65,5.19-.32,5.2,3l.36,125.27a11.37,11.37,0,0,1-5.17,8.94L505.17,293.17c-2.86,1.65-5.19.33-5.2-3l-.35-125.27a11.41,11.41,0,0,1,5.16-8.94Z"/></g><path class="cls-87" d="M660.13,74.05c2.74-1.57,5-.31,5,2.81l.34,114.43a10.8,10.8,0,0,1-5,8.5L508.25,287.9c-2.75,1.57-5,.31-5-2.81l-.34-115.58a10.82,10.82,0,0,1,5-8.5Z"/><path class="cls-88" d="M582.08,114.55c.53-.31,1-.06,1,.55a2.14,2.14,0,0,1-.95,1.66c-.53.3-1,.06-1-.55A2.11,2.11,0,0,1,582.08,114.55Z"/><path class="cls-89" d="M677.4,207c1.82,1.06,1.83,2.76,0,3.82L523.13,299.71a7.27,7.27,0,0,1-6.58,0l-1-.73c-1.82-1.06-1.84-2.76,0-3.82l154.28-88.94a7.24,7.24,0,0,1,6.58,0Z"/><path class="cls-90" d="M542.05,299.3c1.06.62,1.07,1.6,0,2.21l-9.83,5.61a4.16,4.16,0,0,1-3.82,0l-5.11-2.95a1.16,1.16,0,0,1,0-2.2l9.83-5.61a4.23,4.23,0,0,1,3.81,0Z"/><path class="cls-90" d="M559,301.74a1.17,1.17,0,0,1,0,2.21l-15.56,9a4.22,4.22,0,0,1-3.82,0l-5.1-2.95a1.17,1.17,0,0,1,0-2.21l15.56-9a4.19,4.19,0,0,1,3.81,0Z"/><path class="cls-90" d="M565.79,311.09a1.17,1.17,0,0,1,0,2.21l-11,6.76a4.19,4.19,0,0,1-3.81,0l-5.11-2.95a1.17,1.17,0,0,1,0-2.21l11-6.75a4.23,4.23,0,0,1,3.81,0Z"/><path class="cls-90" d="M556.5,291.24a1.17,1.17,0,0,1,0,2.21L549,297.92a4.19,4.19,0,0,1-3.81,0L540,295a1.17,1.17,0,0,1,0-2.21l7.55-4.46a4.23,4.23,0,0,1,3.81,0Z"/><path class="cls-90" d="M569.56,283.46a1.17,1.17,0,0,1,0,2.21L562,290.13a4.22,4.22,0,0,1-3.82,0l-5.11-2.95a1.16,1.16,0,0,1,0-2.2l7.55-4.47a4.19,4.19,0,0,1,3.81,0Z"/><path class="cls-90" d="M583.17,275.87a1.17,1.17,0,0,1,0,2.21l-7.55,4.46a4.22,4.22,0,0,1-3.82,0l-5.1-3a1.16,1.16,0,0,1,0-2.2l7.55-4.47a4.19,4.19,0,0,1,3.81,0Z"/><path class="cls-90" d="M596.22,268.08a1.17,1.17,0,0,1,0,2.21l-7.55,4.47a4.22,4.22,0,0,1-3.82,0l-5.11-2.95a1.17,1.17,0,0,1,0-2.21l7.55-4.46a4.14,4.14,0,0,1,3.8,0Z"/><path class="cls-90" d="M609.77,260.94a1.17,1.17,0,0,1,0,2.21l-7.55,4.46a4.22,4.22,0,0,1-3.82,0l-5.11-2.95a1.16,1.16,0,0,1,0-2.2l7.55-4.47a4.19,4.19,0,0,1,3.81,0Z"/><path class="cls-90" d="M622.82,253.15a1.17,1.17,0,0,1,0,2.21l-7.54,4.47a4.22,4.22,0,0,1-3.82,0l-5.11-2.95a1.17,1.17,0,0,1,0-2.21l7.54-4.46a4.16,4.16,0,0,1,3.81,0Z"/><path class="cls-90" d="M636.28,245.29c1.06.62,1.07,1.6,0,2.22L628.75,252a4.22,4.22,0,0,1-3.82,0L619.82,249a1.17,1.17,0,0,1,0-2.21l7.55-4.46a4.23,4.23,0,0,1,3.81,0Z"/><path class="cls-90" d="M649.34,237.51a1.17,1.17,0,0,1,0,2.21l-7.54,4.46a4.22,4.22,0,0,1-3.82,0l-5.11-3a1.16,1.16,0,0,1,0-2.2l7.55-4.47a4.19,4.19,0,0,1,3.81,0Z"/><path class="cls-90" d="M662.88,230.37a1.17,1.17,0,0,1,0,2.21L655.35,237a4.22,4.22,0,0,1-3.82,0l-5.11-2.95a1.17,1.17,0,0,1,0-2.21l7.54-4.46a4.19,4.19,0,0,1,3.81,0Z"/><path class="cls-90" d="M689.68,214.57a1.17,1.17,0,0,1,0,2.21L668.4,229.25a4.13,4.13,0,0,1-3.81,0l-5.11-2.95a1.16,1.16,0,0,1,0-2.2l21.29-12.48a4.19,4.19,0,0,1,3.81,0Z"/><path class="cls-90" d="M574,293.81a1.17,1.17,0,0,1,0,2.21l-7.55,4.47a4.19,4.19,0,0,1-3.81,0l-5.11-2.95a1.17,1.17,0,0,1,0-2.21l7.55-4.46a4.16,4.16,0,0,1,3.81,0Z"/><path class="cls-90" d="M587.07,286a1.17,1.17,0,0,1,0,2.21l-7.55,4.46a4.22,4.22,0,0,1-3.82,0l-5.11-2.95a1.17,1.17,0,0,1,0-2.21l7.55-4.46a4.19,4.19,0,0,1,3.81,0Z"/><path class="cls-90" d="M600.68,278.44a1.17,1.17,0,0,1,0,2.21l-7.55,4.46a4.22,4.22,0,0,1-3.82,0l-5.1-2.95a1.17,1.17,0,0,1,0-2.21l7.55-4.46a4.19,4.19,0,0,1,3.81,0Z"/><path class="cls-90" d="M613.73,270.65a1.17,1.17,0,0,1,0,2.21l-7.55,4.46a4.16,4.16,0,0,1-3.82,0l-5.11-2.95a1.16,1.16,0,0,1,0-2.2l7.54-4.47a4.19,4.19,0,0,1,3.81,0Z"/><path class="cls-90" d="M627.27,263.51a1.17,1.17,0,0,1,0,2.21l-7.55,4.46a4.22,4.22,0,0,1-3.82,0l-5.11-2.95a1.16,1.16,0,0,1,0-2.2l7.55-4.47a4.19,4.19,0,0,1,3.81,0Z"/><path class="cls-90" d="M640.33,255.72a1.17,1.17,0,0,1,0,2.21l-7.54,4.47a4.22,4.22,0,0,1-3.82,0l-5.11-2.95a1.17,1.17,0,0,1,0-2.21l7.54-4.46a4.16,4.16,0,0,1,3.81,0Z"/><path class="cls-90" d="M653.79,247.86a1.17,1.17,0,0,1,0,2.21l-7.55,4.47a4.22,4.22,0,0,1-3.82,0l-5.11-2.95a1.17,1.17,0,0,1,0-2.21l7.54-4.46a4.23,4.23,0,0,1,3.81,0Z"/><path class="cls-90" d="M666.85,240.08a1.17,1.17,0,0,1,0,2.21l-7.55,4.46a4.19,4.19,0,0,1-3.81,0l-5.11-2.95a1.17,1.17,0,0,1,0-2.21l7.55-4.46a4.19,4.19,0,0,1,3.81,0Z"/><path class="cls-90" d="M680.39,232.93c1.06.62,1.07,1.6,0,2.21l-7.54,4.47a4.22,4.22,0,0,1-3.82,0l-5.11-3a1.17,1.17,0,0,1,0-2.21l7.54-4.46a4.23,4.23,0,0,1,3.81,0Z"/><path class="cls-90" d="M700.37,220.48a1.17,1.17,0,0,1,0,2.21l-14.42,9a4.22,4.22,0,0,1-3.82,0l-5.1-2.95a1.16,1.16,0,0,1,0-2.2l14.42-9.05a4.19,4.19,0,0,1,3.81,0Z"/><path class="cls-90" d="M580.24,302.84a1.17,1.17,0,0,1,0,2.21l-7.54,4.47a4.22,4.22,0,0,1-3.82,0l-5.11-2.95a1.17,1.17,0,0,1,0-2.21l7.55-4.46a4.16,4.16,0,0,1,3.81,0Z"/><path class="cls-90" d="M593.3,295.06a1.17,1.17,0,0,1,0,2.21l-7.55,4.46a4.19,4.19,0,0,1-3.81,0l-5.11-3a1.17,1.17,0,0,1,0-2.21l7.55-4.46a4.19,4.19,0,0,1,3.81,0Z"/><path class="cls-90" d="M606.91,287.47a1.17,1.17,0,0,1,0,2.21l-7.55,4.46a4.19,4.19,0,0,1-3.81,0l-5.11-2.95a1.17,1.17,0,0,1,0-2.21l7.55-4.46a4.19,4.19,0,0,1,3.81,0Z"/><path class="cls-90" d="M620,279.68a1.17,1.17,0,0,1,0,2.21l-7.55,4.46a4.16,4.16,0,0,1-3.82,0l-5.11-2.94a1.17,1.17,0,0,1,0-2.21l7.55-4.47a4.19,4.19,0,0,1,3.81,0Z"/><path class="cls-90" d="M633.51,272.54a1.17,1.17,0,0,1,0,2.21L626,279.21a4.22,4.22,0,0,1-3.82,0l-5.1-2.95a1.16,1.16,0,0,1,0-2.2l7.55-4.47a4.19,4.19,0,0,1,3.81,0Z"/><path class="cls-90" d="M646.56,264.75a1.17,1.17,0,0,1,0,2.21L639,271.43a4.22,4.22,0,0,1-3.82,0l-5.11-2.95a1.17,1.17,0,0,1,0-2.21l7.54-4.46a4.16,4.16,0,0,1,3.81,0Z"/><path class="cls-90" d="M660,256.89a1.17,1.17,0,0,1,0,2.21l-7.55,4.47a4.22,4.22,0,0,1-3.82,0l-5.11-2.95a1.17,1.17,0,0,1,0-2.21l7.55-4.46a4.23,4.23,0,0,1,3.81,0Z"/><path class="cls-90" d="M673.08,249.11a1.17,1.17,0,0,1,0,2.21l-7.54,4.46a4.22,4.22,0,0,1-3.82,0l-5.11-2.95a1.16,1.16,0,0,1,0-2.2l7.54-4.47a4.19,4.19,0,0,1,3.81,0Z"/><path class="cls-90" d="M686.62,242c1.06.62,1.07,1.6,0,2.22l-7.55,4.46a4.22,4.22,0,0,1-3.82,0l-5.11-2.95a1.17,1.17,0,0,1,0-2.21l7.55-4.46a4.23,4.23,0,0,1,3.81,0Z"/><path class="cls-90" d="M711.27,227.19a1.17,1.17,0,0,1,0,2.21l-19,11.33a4.22,4.22,0,0,1-3.82,0l-5.11-2.95a1.17,1.17,0,0,1,0-2.21l19-11.33a4.19,4.19,0,0,1,3.81,0Z"/><path class="cls-90" d="M574.52,320.32a1.17,1.17,0,0,1,0,2.21L567,327a4.19,4.19,0,0,1-3.81,0l-5.11-2.95a1.17,1.17,0,0,1,0-2.21l7.55-4.46a4.23,4.23,0,0,1,3.81,0Z"/><path class="cls-90" d="M587.05,312.23a1.18,1.18,0,0,1,0,2.22l-7.5,4.55a4.22,4.22,0,0,1-3.82,0l-5.14-2.89a1.17,1.17,0,0,1,0-2.21l7.5-4.55a4.23,4.23,0,0,1,3.81-.05Z"/><path class="cls-90" d="M600.57,304.49a1.17,1.17,0,0,1,0,2.21l-7.5,4.55a4.19,4.19,0,0,1-3.81,0l-5.15-2.89a1.16,1.16,0,0,1,0-2.2l7.5-4.55a4.17,4.17,0,0,1,3.81,0Z"/><path class="cls-90" d="M613.54,296.55a1.18,1.18,0,0,1,0,2.22l-7.5,4.55a4.22,4.22,0,0,1-3.82,0l-5.14-2.89a1.17,1.17,0,0,1,0-2.21l7.5-4.55a4.23,4.23,0,0,1,3.81,0Z"/><path class="cls-90" d="M627,289.26a1.17,1.17,0,0,1,0,2.21L619.54,296a4.22,4.22,0,0,1-3.82,0l-5.14-2.89a1.17,1.17,0,0,1,0-2.21l7.5-4.55a4.19,4.19,0,0,1,3.81,0Z"/><path class="cls-90" d="M640,281.32c1.07.6,1.09,1.59,0,2.21l-7.49,4.55a4.19,4.19,0,0,1-3.82.05l-5.14-2.89a1.17,1.17,0,0,1,0-2.21l7.49-4.55a4.23,4.23,0,0,1,3.81-.05Z"/><path class="cls-90" d="M653.34,273.31a1.17,1.17,0,0,1,0,2.21l-7.49,4.55a4.19,4.19,0,0,1-3.82.05l-5.14-2.9a1.16,1.16,0,0,1,0-2.2l7.49-4.55a4.17,4.17,0,0,1,3.81-.05Z"/><path class="cls-90" d="M666.3,265.38c1.07.6,1.09,1.58,0,2.21l-7.5,4.55a4.19,4.19,0,0,1-3.81,0l-5.15-2.89a1.17,1.17,0,0,1,0-2.21l7.5-4.55a4.2,4.2,0,0,1,3.81,0Z"/><path class="cls-90" d="M679.76,258.08a1.17,1.17,0,0,1,0,2.21l-7.5,4.55a4.19,4.19,0,0,1-3.81,0L663.34,262a1.16,1.16,0,0,1,0-2.2l7.5-4.55a4.17,4.17,0,0,1,3.81-.05Z"/><path class="cls-90" d="M694.86,249.78a1.17,1.17,0,0,1,0,2.21l-7.49,4.55a4.19,4.19,0,0,1-3.82,0l-5.14-2.9a1.16,1.16,0,0,1,0-2.2l7.5-4.55a4.16,4.16,0,0,1,3.81-.05Z"/><path class="cls-90" d="M709,241.85a1.17,1.17,0,0,1,0,2.21l-7.5,4.55a4.22,4.22,0,0,1-3.82,0l-5.14-2.89a1.17,1.17,0,0,1,0-2.21L700,239a4.19,4.19,0,0,1,3.81,0Z"/><path class="cls-90" d="M722.43,233.4a1.18,1.18,0,0,1,0,2.22l-7.5,4.55a4.22,4.22,0,0,1-3.82,0L706,237.32a1.17,1.17,0,0,1,0-2.21l7.5-4.55a4.23,4.23,0,0,1,3.81-.05Z"/><g class="cls-7"><g class="cls-7"><g class="cls-91"><g class="cls-7"><path class="cls-92" d="M629.34,308.54v-1.11a2.13,2.13,0,0,1,.92-1.65v1.11a2.16,2.16,0,0,0-.92,1.65"/><path class="cls-93" d="M630.26,306.89v-1.11l.26-.2v1.11a2.69,2.69,0,0,0-.27.2"/><path class="cls-94" d="M630.53,306.69v-1.11l.24-.15v1.11l-.23.15"/><polyline class="cls-95" points="630.76 306.54 630.77 305.43 630.78 305.43 630.77 306.54 630.76 306.54"/></g></g></g><g class="cls-7"><g class="cls-96"><g class="cls-7"><path class="cls-97" d="M731.61,287.63v-1.11l.14.09v1.11l-.14-.09"/><path class="cls-97" d="M731.75,287.72v-1.11l.18.12v1.11l-.18-.12"/><path class="cls-97" d="M731.93,287.84v-1.11a.91.91,0,0,1,.16.11V288l-.15-.11"/><path class="cls-97" d="M732.08,288v-1.11l.13.11v1.11l-.14-.11"/><path class="cls-97" d="M732.22,288.06V287l.13.11v1.11l-.12-.11"/><path class="cls-97" d="M732.34,288.17v-1.11l.1.11v1.11l-.11-.11"/><path class="cls-97" d="M732.45,288.28v-1.11l.1.11v1.11l-.1-.11"/><path class="cls-97" d="M732.55,288.39v-1.11l.09.11v1.11l-.09-.11"/><path class="cls-97" d="M732.64,288.5v-1.11a.76.76,0,0,1,.08.11v1.11l-.08-.11"/><path class="cls-97" d="M732.72,288.61V287.5l.07.11v1.11l-.07-.11"/><path class="cls-97" d="M732.79,288.72v-1.11a.75.75,0,0,1,.07.12v1.11l-.06-.12"/><path class="cls-97" d="M732.85,288.84v-1.11a.61.61,0,0,1,0,.12V289l-.06-.12"/><path class="cls-97" d="M732.91,289v-1.11a.61.61,0,0,1,.05.12v1.11l-.05-.12"/><path class="cls-97" d="M733,289.08V288a.5.5,0,0,1,0,.13v1.11s0-.09,0-.13"/><path class="cls-97" d="M733,289.21V288.1l0,.13v1.11l0-.13"/><path class="cls-97" d="M733,289.34v-1.11a.77.77,0,0,1,0,.15v1.11a.77.77,0,0,0,0-.15"/><path class="cls-97" d="M733.05,289.49v-1.11a.76.76,0,0,1,0,.15v1.11a.76.76,0,0,0,0-.15"/><path class="cls-97" d="M733.06,289.64v0"/></g></g></g><polygon class="cls-98" points="630.77 306.54 630.78 305.43 693.96 268.81 693.96 269.92 630.77 306.54"/><polygon class="cls-97" points="700.92 269.92 700.93 268.81 731.61 286.52 731.61 287.63 700.92 269.92"/><g class="cls-7"><g class="cls-99"><path class="cls-97" d="M694,269.92v-1.11l.2-.11v1.11l-.2.11"/><path class="cls-97" d="M694.16,269.81V268.7l.21-.1v1.11l-.2.1"/><path class="cls-97" d="M694.36,269.71V268.6l.2-.09v1.11l-.2.09"/><path class="cls-97" d="M694.56,269.62v-1.11l.18-.08v1.11l-.19.08"/><path class="cls-97" d="M694.75,269.54v-1.11l.19-.06v1.11l-.19.06"/><path class="cls-97" d="M694.94,269.48v-1.11l.19-.07v1.11l-.19.07"/><path class="cls-97" d="M695.13,269.41V268.3l.19-.05v1.11l-.19.05"/><path class="cls-97" d="M695.32,269.36v-1.11l.19-.05v1.11l-.18.05"/><path class="cls-97" d="M695.5,269.31V268.2l.19,0v1.11l-.2,0"/><path class="cls-97" d="M695.7,269.27v-1.11l.19,0v1.11l-.19,0"/><path class="cls-97" d="M695.89,269.23v-1.11l.2,0v1.11l-.2,0"/><path class="cls-97" d="M696.09,269.19v-1.11l.21,0v1.11l-.21,0"/><path class="cls-97" d="M696.3,269.16v-1.11l.22,0v1.11l-.21,0"/><path class="cls-97" d="M696.51,269.13V268l.22,0v1.11l-.22,0"/><path class="cls-97" d="M696.73,269.11V268l.23,0v1.11l-.24,0"/><path class="cls-97" d="M697,269.09V268h.26v1.11H697"/><path class="cls-97" d="M697.22,269.08V268h.27v1.11h-.27"/><path class="cls-97" d="M697.49,269.08V268h.3v1.11h-.31"/><path class="cls-97" d="M697.8,269.09V268l.36,0v1.11l-.36,0"/><path class="cls-97" d="M698.16,269.11V268c.16,0,.32,0,.47.06v1.11l-.47-.06"/><path class="cls-97" d="M698.63,269.17v-1.11a7,7,0,0,1,1.56.4v1.11a7.14,7.14,0,0,0-1.56-.4"/><path class="cls-97" d="M700.19,269.57v-1.11a3.52,3.52,0,0,1,.39.17v1.11l-.39-.17"/><path class="cls-97" d="M700.58,269.74v-1.11a1.71,1.71,0,0,1,.27.14v1.11l-.27-.14"/><path class="cls-97" d="M700.85,269.88v-1.11l.08,0v1.11l-.07,0"/></g></g><path class="cls-100" d="M731.61,287.63c1.93,1.12,1.94,2.92,0,4l-63.19,36.62a7.69,7.69,0,0,1-7,0L630.8,310.57c-1.93-1.11-1.94-2.92,0-4L694,269.92a7.63,7.63,0,0,1,7,0Z"/></g></g><g class="cls-101"><g class="cls-7"><g class="cls-7"><path class="cls-4" d="M784,320.5l-.5,44.72c0,2-1.32,4-3.94,5.51L780,326C782.63,324.48,784,322.49,784,320.5Z"/><g class="cls-102"><g class="cls-7"><path class="cls-103" d="M784,320.5l-.5,44.72v.12l.5-44.72v-.12"/><path class="cls-104" d="M784,320.62l-.5,44.72a4.91,4.91,0,0,1-.09.77l.5-44.72a4.14,4.14,0,0,0,.09-.77"/><path class="cls-105" d="M783.86,321.39l-.5,44.72a4.22,4.22,0,0,1-.22.77l.5-44.72a4.45,4.45,0,0,0,.22-.77"/><path class="cls-106" d="M783.64,322.16l-.5,44.72a4.44,4.44,0,0,1-.36.77l.5-44.72a4.81,4.81,0,0,0,.36-.77"/><path class="cls-107" d="M783.28,322.93l-.5,44.72a7.6,7.6,0,0,1-.54.81l.5-44.73a6.61,6.61,0,0,0,.54-.8"/><path class="cls-108" d="M782.74,323.73l-.5,44.73a7.91,7.91,0,0,1-.85.9l.5-44.72a8,8,0,0,0,.85-.91"/><path class="cls-109" d="M781.89,324.64l-.5,44.72a9.83,9.83,0,0,1-1.72,1.27l.5-44.72a10.37,10.37,0,0,0,1.72-1.27"/><path class="cls-110" d="M780.17,325.91l-.5,44.72-.16.1L780,326l.16-.1"/></g></g></g><g class="cls-7"><path class="cls-5" d="M497,365.14l.5-44.72c0,2,1.34,4.05,4,5.59l-.5,44.72C498.29,369.19,497,367.16,497,365.14Z"/><g class="cls-111"><g class="cls-7"><path class="cls-5" d="M501.46,326l-.5,44.72c-2.67-1.54-4-3.57-4-5.59l.5-44.72c0,2,1.34,4.05,4,5.59"/></g></g></g><polygon class="cls-112" points="780.01 326.01 779.51 370.73 650.26 445.64 650.76 400.92 780.01 326.01"/><polygon class="cls-113" points="631.56 400.92 631.06 445.65 500.96 370.73 501.46 326.01 631.56 400.92"/><g class="cls-7"><path class="cls-6" d="M650.76,400.92l-.5,44.73c-5.29,3.06-13.88,3.06-19.2,0l.5-44.73C636.88,404,645.47,404,650.76,400.92Z"/><g class="cls-114"><g class="cls-7"><path class="cls-115" d="M650.76,400.92l-.5,44.73a15.16,15.16,0,0,1-3,1.3l.5-44.72a15.19,15.19,0,0,0,3-1.31"/><path class="cls-116" d="M647.78,402.23l-.5,44.72a18.93,18.93,0,0,1-2.57.64l.5-44.72a18.93,18.93,0,0,0,2.57-.64"/><path class="cls-117" d="M645.21,402.87l-.5,44.72c-.57.1-1.15.18-1.73.24l.5-44.72c.58-.06,1.16-.14,1.73-.24"/><path class="cls-118" d="M643.48,403.11l-.5,44.72c-.5.05-1,.08-1.51.1l.5-44.72c.51,0,1,0,1.51-.1"/><path class="cls-119" d="M642,403.21l-.5,44.72c-.46,0-.92,0-1.39,0l.5-44.73c.47,0,.93,0,1.39,0"/><path class="cls-120" d="M640.58,403.21l-.5,44.73c-.44,0-.89,0-1.33-.07l.5-44.73c.44,0,.89.06,1.33.07"/><path class="cls-121" d="M639.25,403.14l-.5,44.73q-.68-.06-1.32-.15l.5-44.72c.43.06.87.11,1.32.14"/><path class="cls-122" d="M637.93,403l-.5,44.72c-.46-.07-.91-.14-1.35-.24l.5-44.72q.66.14,1.35.24"/><path class="cls-123" d="M636.58,402.76l-.5,44.72c-.48-.09-1-.21-1.42-.34l.5-44.72c.47.13.94.24,1.42.34"/><path class="cls-124" d="M635.16,402.42l-.5,44.72c-.56-.16-1.11-.35-1.65-.56l.51-44.72c.53.21,1.08.4,1.64.56"/><path class="cls-125" d="M633.52,401.86,633,446.58a15.22,15.22,0,0,1-2-.93l.5-44.73a13.63,13.63,0,0,0,2,.94"/></g></g></g></g></g></g></g></svg>