<svg xmlns="http://www.w3.org/2000/svg" viewBox="0 0 373.99 211.64"><defs><style>.a{fill:none;stroke:#579ea6;stroke-miterlimit:10;stroke-width:2px;}</style></defs><line class="a" x1="371.98" y1="210.64" x2="135.38" y2="210.64"/><polyline class="a" points="371.98 193.75 330.52 193.75 316.94 180.17 240.78 180.17"/><polyline class="a" points="371.98 176.68 335.18 176.68 320.04 161.54 191.59 161.54 175.48 177.65 163.32 177.65"/><line class="a" x1="372.6" y1="158.99" x2="345.88" y2="158.99"/><polyline class="a" points="373.99 141.91 82.93 141.91 49.55 175.28 0.01 175.54"/><line class="a" x1="371.98" y1="124.06" x2="306.8" y2="124.06"/><polyline class="a" points="371.98 106.98 301.8 106.98 285.5 123.28 247.04 123.28"/><polyline class="a" points="371.98 89.91 226.52 89.91 196.25 120.8 123.29 120.8 92.63 89.52 63.75 89.51"/><polyline class="a" points="371.35 72.61 205.71 72.89 192.15 86.5 138.98 86.58 127.51 75.15 112.65 75.27"/><polyline class="a" points="371.36 55.76 208.05 55.76 187.87 35.58 153.72 35.58 134.7 54.59 88.19 54.59"/><polyline class="a" points="371.98 38.06 267.65 38.06 255 25.76"/><line class="a" x1="371.81" y1="21.01" x2="342.22" y2="21.01"/><polyline class="a" points="372.53 3.92 329.44 3.92 313.51 19.85 285.13 19.85 266.28 1 135.87 1 121.2 15.67 37.9 15.67"/></svg>